<svg width="22" height="22" viewBox="0 0 22 22" fill="none" xmlns="http://www.w3.org/2000/svg">
<path d="M13.7364 5.00439C13.7364 4.59018 13.4006 4.25439 12.9864 4.25439C12.5721 4.25439 12.2364 4.59018 12.2364 5.00439V5.24443C12.0983 5.2867 11.9583 5.34034 11.817 5.40621C10.9049 5.83138 10.3239 6.75014 10.374 7.6819C10.3998 8.16189 10.5961 8.6347 10.9873 9.0004C11.3739 9.36173 11.9015 9.57379 12.5226 9.63921C12.6923 9.65709 12.8507 9.66556 12.9939 9.6702C13.0709 9.67269 13.1435 9.67407 13.2111 9.6752L13.2553 9.67593C13.4362 9.6789 13.5621 9.68097 13.6775 9.69266C13.8763 9.7128 13.9686 9.75184 14.0821 9.87422C14.1676 9.96639 14.2927 10.2726 14.2399 10.6242C14.196 10.9161 14.0434 11.1638 13.6671 11.2828C13.4381 11.3552 13.2365 11.385 12.9963 11.3821C12.7768 11.3822 12.492 11.3218 12.2914 11.2326C11.9143 11.0649 11.7675 10.8287 11.7434 10.6722C11.6805 10.2628 11.2976 9.98193 10.8882 10.0449C10.4787 10.1078 10.1979 10.4907 10.2608 10.9001C10.3854 11.7103 10.9951 12.2978 11.6819 12.6032C11.8569 12.681 12.0427 12.7438 12.2364 12.79V13.0044C12.2364 13.4186 12.5721 13.7544 12.9864 13.7544C13.4006 13.7544 13.7364 13.4186 13.7364 13.0044V12.8118C13.8639 12.7862 13.9917 12.7533 14.1193 12.713C15.121 12.3963 15.6074 11.6179 15.7232 10.8471C15.83 10.1362 15.6356 9.34344 15.182 8.8543C14.7564 8.39538 14.2849 8.24652 13.8287 8.2003C13.6461 8.1818 13.455 8.17883 13.2901 8.17627L13.2362 8.17541C13.1535 8.17402 13.0727 8.17233 12.9918 8.16916C12.8891 8.16513 12.7864 8.1587 12.6797 8.14746C12.3018 8.10765 12.1064 7.99314 12.0116 7.90458C11.9216 7.82038 11.8782 7.71995 11.8719 7.60137C11.8576 7.33601 12.0419 6.95632 12.4508 6.76574C12.6431 6.6761 12.8238 6.63309 12.9897 6.62592C13.5571 6.6014 13.951 6.9962 14.0416 7.37837C14.1371 7.78142 14.5413 8.03073 14.9443 7.93521C15.3474 7.8397 15.5967 7.43553 15.5012 7.03248C15.3076 6.21584 14.6386 5.47427 13.7364 5.21651V5.00439Z" fill="#A9B2BC"/>
<path fill-rule="evenodd" clip-rule="evenodd" d="M4.25 9C4.25 4.16751 8.16751 0.25 13 0.25C17.8325 0.25 21.75 4.16751 21.75 9C21.75 13.8325 17.8325 17.75 13 17.75C8.16751 17.75 4.25 13.8325 4.25 9ZM13 1.75C8.99593 1.75 5.75 4.99593 5.75 9C5.75 13.0041 8.99593 16.25 13 16.25C17.0041 16.25 20.25 13.0041 20.25 9C20.25 4.99593 17.0041 1.75 13 1.75Z" fill="#A9B2BC"/>
<path d="M2.56724 9.37251C2.91384 9.59932 3.01095 10.0642 2.78414 10.4108C2.13023 11.41 1.75 12.6039 1.75 13.8889C1.75 17.4021 4.598 20.2501 8.11116 20.2501C9.39622 20.2501 10.5901 19.8699 11.5893 19.2159C11.9359 18.9891 12.4007 19.0862 12.6276 19.4328C12.8544 19.7794 12.7573 20.2442 12.4107 20.471C11.1747 21.2799 9.69678 21.7501 8.11116 21.7501C3.76956 21.7501 0.25 18.2305 0.25 13.8889C0.25 12.3033 0.720225 10.8253 1.529 9.58941C1.75581 9.24281 2.22064 9.1457 2.56724 9.37251Z" fill="#A9B2BC"/>
</svg>
