<svg width="22" height="20" viewBox="0 0 22 20" fill="none" xmlns="http://www.w3.org/2000/svg">
<path fill-rule="evenodd" clip-rule="evenodd" d="M6.55827 5.25C6.21738 5.24995 5.89076 5.24989 5.62226 5.28599C5.32124 5.32646 4.98373 5.42426 4.70399 5.70399C4.42426 5.98373 4.32646 6.32124 4.28599 6.62226C4.24989 6.89076 4.24995 7.21737 4.25001 7.55826V8.44175C4.24995 8.78264 4.24989 9.10926 4.28599 9.37776C4.32646 9.67878 4.42426 10.0163 4.70399 10.296C4.98373 10.5758 5.32124 10.6736 5.62226 10.714C5.89076 10.7501 6.21738 10.7501 6.55828 10.75H7.44174C7.78264 10.7501 8.10926 10.7501 8.37776 10.714C8.67878 10.6736 9.01629 10.5758 9.29603 10.296C9.57576 10.0163 9.67356 9.67878 9.71403 9.37776C9.75013 9.10926 9.75007 8.78264 9.75001 8.44174V7.55828C9.75007 7.21738 9.75013 6.89076 9.71403 6.62226C9.67356 6.32124 9.57576 5.98373 9.29603 5.70399C9.01629 5.42426 8.67878 5.32646 8.37776 5.28599C8.10926 5.24989 7.78264 5.24995 7.44175 5.25H6.55827ZM5.7255 6.79264C5.72545 6.79262 5.72623 6.79226 5.72799 6.79162L5.7255 6.79264ZM5.82213 6.77261C5.80537 6.77486 5.7912 6.77714 5.7793 6.7793C5.77714 6.7912 5.77486 6.80537 5.77261 6.82213C5.7516 6.97839 5.75001 7.20168 5.75001 7.60001V8.40001C5.75001 8.79834 5.7516 9.02163 5.77261 9.17789C5.77486 9.19465 5.77714 9.20882 5.7793 9.22072C5.7912 9.22288 5.80537 9.22516 5.82213 9.22741C5.97839 9.24842 6.20168 9.25001 6.60001 9.25001H7.40001C7.79834 9.25001 8.02163 9.24842 8.17789 9.22741C8.19465 9.22516 8.20882 9.22288 8.22072 9.22072C8.22288 9.20882 8.22516 9.19464 8.22741 9.17789C8.24842 9.02163 8.25001 8.79833 8.25001 8.40001V7.60001C8.25001 7.20168 8.24842 6.97839 8.22741 6.82213C8.22516 6.80537 8.22288 6.7912 8.22072 6.7793C8.20882 6.77714 8.19465 6.77486 8.17789 6.77261C8.02163 6.7516 7.79834 6.75001 7.40001 6.75001H6.60001C6.20168 6.75001 5.97839 6.7516 5.82213 6.77261ZM5.7255 9.20738L5.72799 9.2084C5.72623 9.20776 5.72545 9.2074 5.7255 9.20738ZM5.79162 9.27203L5.79264 9.27452C5.79262 9.27457 5.79226 9.27379 5.79162 9.27203ZM8.20738 9.27452L8.2084 9.27203C8.20776 9.27379 8.2074 9.27457 8.20738 9.27452ZM8.27203 9.2084L8.27452 9.20738C8.27457 9.2074 8.27379 9.20776 8.27203 9.2084ZM8.27452 6.79264C8.27454 6.79263 8.2751 6.79288 8.27452 6.79264V6.79264ZM8.2084 6.72799L8.20738 6.7255C8.2074 6.72545 8.20776 6.72623 8.2084 6.72799ZM5.79162 6.72799C5.79226 6.72623 5.79262 6.72545 5.79264 6.7255L5.79162 6.72799Z" fill="#A9B2BC"/>
<path d="M4.25 14C4.25 13.5858 4.58579 13.25 5 13.25H9C9.41421 13.25 9.75 13.5858 9.75 14C9.75 14.4142 9.41421 14.75 9 14.75H5C4.58579 14.75 4.25 14.4142 4.25 14Z" fill="#A9B2BC"/>
<path d="M13 5.25C12.5858 5.25 12.25 5.58579 12.25 6C12.25 6.41421 12.5858 6.75 13 6.75H17C17.4142 6.75 17.75 6.41421 17.75 6C17.75 5.58579 17.4142 5.25 17 5.25H13Z" fill="#A9B2BC"/>
<path d="M12.25 10C12.25 9.58579 12.5858 9.25 13 9.25H17C17.4142 9.25 17.75 9.58579 17.75 10C17.75 10.4142 17.4142 10.75 17 10.75H13C12.5858 10.75 12.25 10.4142 12.25 10Z" fill="#A9B2BC"/>
<path d="M13 13.25C12.5858 13.25 12.25 13.5858 12.25 14C12.25 14.4142 12.5858 14.75 13 14.75H17C17.4142 14.75 17.75 14.4142 17.75 14C17.75 13.5858 17.4142 13.25 17 13.25H13Z" fill="#A9B2BC"/>
<path fill-rule="evenodd" clip-rule="evenodd" d="M11.0522 0.25H10.9478C8.63499 0.249991 6.83014 0.249983 5.42355 0.420184C3.99222 0.593377 2.85936 0.953594 1.96274 1.76055C1.05481 2.57769 0.639075 3.62747 0.44129 4.95147C0.249966 6.23221 0.249981 7.86922 0.25 9.9375V10.0625C0.249981 12.1308 0.249966 13.7678 0.44129 15.0485C0.639075 16.3725 1.05481 17.4223 1.96274 18.2395C2.85936 19.0464 3.99222 19.4066 5.42355 19.5798C6.83014 19.75 8.63498 19.75 10.9478 19.75H11.0522C13.365 19.75 15.1699 19.75 16.5765 19.5798C18.0078 19.4066 19.1406 19.0464 20.0373 18.2395C20.9452 17.4223 21.3609 16.3725 21.5587 15.0485C21.75 13.7678 21.75 12.1308 21.75 10.0625V9.93747C21.75 7.8692 21.75 6.23221 21.5587 4.95147C21.3609 3.62747 20.9452 2.57769 20.0373 1.76055C19.1406 0.953594 18.0078 0.593377 16.5765 0.420184C15.1699 0.249983 13.365 0.249991 11.0522 0.25ZM2.96619 2.87549C3.53404 2.36443 4.31193 2.06563 5.60374 1.90932C6.90972 1.7513 8.62385 1.75 11 1.75C13.3762 1.75 15.0903 1.7513 16.3963 1.90932C17.6881 2.06563 18.466 2.36443 19.0338 2.87549C19.5903 3.37637 19.9068 4.04626 20.0752 5.17309C20.248 6.33029 20.25 7.8552 20.25 10C20.25 12.1448 20.248 13.6697 20.0752 14.8269C19.9068 15.9537 19.5903 16.6236 19.0338 17.1245C18.466 17.6356 17.6881 17.9344 16.3963 18.0907C15.0903 18.2487 13.3762 18.25 11 18.25C8.62385 18.25 6.90972 18.2487 5.60374 18.0907C4.31193 17.9344 3.53404 17.6356 2.96619 17.1245C2.40965 16.6236 2.09316 15.9537 1.92483 14.8269C1.75196 13.6697 1.75 12.1448 1.75 10C1.75 7.8552 1.75196 6.33029 1.92483 5.17309C2.09316 4.04626 2.40965 3.37637 2.96619 2.87549Z" fill="#A9B2BC"/>
</svg>
