<svg width="24" height="24" viewBox="0 0 24 24" fill="none" xmlns="http://www.w3.org/2000/svg">
<path d="M3.9998 12.75C3.58559 12.75 3.2498 13.0858 3.2498 13.5C3.2498 13.9142 3.58559 14.25 3.9998 14.25H6.39462C6.57639 14.25 6.75475 14.291 6.91532 14.3687L8.95729 15.3567C9.32291 15.5336 9.72477 15.6251 10.1313 15.6251H11.1739C11.6004 15.6251 11.951 15.8532 12.1271 16.1718L10.1928 16.7066C9.91172 16.7843 9.61084 16.7568 9.35146 16.6313L7.16856 15.5751C6.7957 15.3947 6.34719 15.5507 6.16678 15.9236C5.98638 16.2965 6.14239 16.745 6.51525 16.9254L8.69815 17.9816C9.28676 18.2664 9.96202 18.3267 10.5925 18.1523L13.1335 17.4498C13.4835 17.353 13.7498 17.0331 13.7498 16.642C13.7498 16.6127 13.7493 16.5836 13.7483 16.5546L17.8128 15.3058L17.8157 15.305C18.3131 15.15 18.862 15.3288 19.1889 15.7814C19.3049 15.942 19.2448 16.163 19.1034 16.2445L11.5879 20.5809C11.2868 20.7546 10.9354 20.7957 10.6083 20.6986L4.21316 18.8009C3.81606 18.6831 3.39862 18.9095 3.28079 19.3066C3.16296 19.7037 3.38935 20.1211 3.78645 20.239L10.1816 22.1366C10.9061 22.3516 11.6825 22.2581 12.3375 21.8801L19.8531 17.5438C20.7863 17.0054 21.0264 15.7638 20.4049 14.9032C19.712 13.9437 18.5015 13.5209 17.371 13.8724L17.3695 13.8729L13.2424 15.1409C12.769 14.5205 12.0113 14.1251 11.1739 14.1251H10.1313C9.94954 14.1251 9.77118 14.0841 9.6106 14.0064L7.56863 13.0184C7.20301 12.8415 6.80116 12.75 6.39462 12.75H3.9998Z" fill="#A9B2BC"/>
<path fill-rule="evenodd" clip-rule="evenodd" d="M11.4996 1.75C13.1025 1.75 14.4969 2.637 15.2208 3.94575C15.6244 3.81858 16.054 3.75 16.4996 3.75C18.8468 3.75 20.7496 5.65278 20.7496 8C20.7496 10.3471 18.8468 12.25 16.4996 12.25C14.8974 12.25 13.5023 11.3634 12.7781 10.0541C12.3741 10.1814 11.9445 10.25 11.4996 10.25C9.15238 10.25 7.24961 8.34714 7.24961 6C7.24961 3.65278 9.15239 1.75 11.4996 1.75ZM16.4996 5.25C14.9808 5.25 13.7496 6.48121 13.7496 8C13.7496 9.51873 14.9808 10.75 16.4996 10.75C18.0184 10.75 19.2496 9.51873 19.2496 8C19.2496 6.48121 18.0184 5.25 16.4996 5.25ZM12.2496 8C12.2496 6.63537 12.8928 5.42097 13.8925 4.64336C13.4194 3.81079 12.5243 3.25 11.4996 3.25C9.98082 3.25 8.74961 4.48121 8.74961 6C8.74961 7.51873 9.98083 8.75 11.4996 8.75C11.7773 8.75 12.0447 8.70905 12.2964 8.63299C12.2656 8.42647 12.2496 8.2151 12.2496 8Z" fill="#A9B2BC"/>
</svg>
