<svg width="505" height="257" viewBox="0 0 505 257" fill="none"
  xmlns="http://www.w3.org/2000/svg">
  <path opacity="0.03" d="M384.563 32.4555C384.563 -20.1714 340.928 -62.834 287.102 -62.834C233.276 -62.834 189.641 -20.1714 189.641 32.4555C189.641 85.0825 233.276 127.745 287.102 127.745C340.928 127.745 384.563 85.0825 384.563 32.4555Z" fill="#B8D7E9" />
  <path opacity="0.05" d="M379.302 37.5981C379.302 -15.0288 335.667 -57.6914 281.84 -57.6914C228.014 -57.6914 184.379 -15.0288 184.379 37.5981C184.379 90.225 228.014 132.888 281.84 132.888C335.667 132.888 379.302 90.225 379.302 37.5981Z" fill="#B8D7E9" />
  <path opacity="0.08" d="M374.044 42.7416C374.044 -9.88531 330.409 -52.5479 276.582 -52.5479C222.756 -52.5479 179.121 -9.88531 179.121 42.7416C179.121 95.3686 222.756 138.031 276.582 138.031C330.409 138.031 374.044 95.3686 374.044 42.7416Z" fill="#B8D7E9" />
  <path opacity="0.11" d="M368.759 47.9077C368.759 -4.71926 325.124 -47.3818 271.297 -47.3818C217.471 -47.3818 173.836 -4.71926 173.836 47.9077C173.836 100.535 217.471 143.197 271.297 143.197C325.124 143.197 368.759 100.535 368.759 47.9077Z" fill="#B8D7E9" />
  <path opacity="0.14" d="M363.501 53.0492C363.501 0.422306 319.866 -42.2402 266.039 -42.2402C212.213 -42.2402 168.578 0.422306 168.578 53.0492C168.578 105.676 212.213 148.339 266.039 148.339C319.866 148.339 363.501 105.676 363.501 53.0492Z" fill="#B8D7E9" />
  <path opacity="0.16" d="M358.239 58.1947C358.239 5.56781 314.604 -37.0947 260.778 -37.0947C206.951 -37.0947 163.316 5.56781 163.316 58.1947C163.316 110.822 206.951 153.484 260.778 153.484C314.604 153.484 358.239 110.822 358.239 58.1947Z" fill="#B8D7E9" />
  <path opacity="0.19" d="M352.954 63.3578C352.954 10.7309 309.319 -31.9316 255.493 -31.9316C201.666 -31.9316 158.031 10.7309 158.031 63.3578C158.031 115.985 201.666 158.647 255.493 158.647C309.319 158.647 352.954 115.985 352.954 63.3578Z" fill="#B8D7E9" />
  <path opacity="0.22" d="M347.696 68.5014C347.696 15.8745 304.061 -26.7881 250.235 -26.7881C196.408 -26.7881 152.773 15.8745 152.773 68.5014C152.773 121.128 196.408 163.791 250.235 163.791C304.061 163.791 347.696 121.128 347.696 68.5014Z" fill="#B8D7E9" />
  <path opacity="0.24" d="M342.434 73.6421C342.434 21.0151 298.799 -21.6475 244.973 -21.6475C191.147 -21.6475 147.512 21.0151 147.512 73.6421C147.512 126.269 191.147 168.932 244.973 168.932C298.799 168.932 342.434 126.269 342.434 73.6421Z" fill="#B8D7E9" />
  <path opacity="0.27" d="M337.153 78.808C337.153 26.1811 293.518 -16.4814 239.692 -16.4814C185.865 -16.4814 142.23 26.1811 142.23 78.808C142.23 131.435 185.865 174.098 239.692 174.098C293.518 174.098 337.153 131.435 337.153 78.808Z" fill="#B8D7E9" />
  <path opacity="0.3" d="M331.892 83.9516C331.892 31.3247 288.257 -11.3379 234.43 -11.3379C180.604 -11.3379 136.969 31.3247 136.969 83.9516C136.969 136.579 180.604 179.241 234.43 179.241C288.257 179.241 331.892 136.579 331.892 83.9516Z" fill="#B8D7E9" />
  <path opacity="0.32" d="M326.606 89.1176C326.606 36.4907 282.971 -6.17188 229.145 -6.17188C175.319 -6.17188 131.684 36.4907 131.684 89.1176C131.684 141.745 175.319 184.407 229.145 184.407C282.971 184.407 326.606 141.745 326.606 89.1176Z" fill="#B8D7E9" />
  <path opacity="0.35" d="M321.348 94.2602C321.348 41.6332 277.714 -1.0293 223.887 -1.0293C170.061 -1.0293 126.426 41.6332 126.426 94.2602C126.426 146.887 170.061 189.55 223.887 189.55C277.714 189.55 321.348 146.887 321.348 94.2602Z" fill="#B8D7E9" />
  <path opacity="0.38" d="M316.087 99.4008C316.087 46.7739 272.452 4.11133 218.625 4.11133C164.799 4.11133 121.164 46.7739 121.164 99.4008C121.164 152.028 164.799 194.69 218.625 194.69C272.452 194.69 316.087 152.028 316.087 99.4008Z" fill="#B8D7E9" />
  <path opacity="0.41" d="M310.806 104.568C310.806 51.9409 267.171 9.27832 213.344 9.27832C159.518 9.27832 115.883 51.9409 115.883 104.568C115.883 157.195 159.518 199.857 213.344 199.857C267.171 199.857 310.806 157.195 310.806 104.568Z" fill="#B8D7E9" />
  <path opacity="0.43" d="M305.548 109.71C305.548 57.0835 261.913 14.4209 208.086 14.4209C154.26 14.4209 110.625 57.0835 110.625 109.71C110.625 162.337 154.26 205 208.086 205C261.913 205 305.548 162.337 305.548 109.71Z" fill="#B8D7E9" />
  <path opacity="0.46" d="M300.286 114.854C300.286 62.227 256.651 19.5645 202.825 19.5645C148.998 19.5645 105.363 62.227 105.363 114.854C105.363 167.481 148.998 210.143 202.825 210.143C256.651 210.143 300.286 167.481 300.286 114.854Z" fill="#B8D7E9" />
  <path opacity="0.49" d="M295.005 120.02C295.005 67.393 251.37 24.7305 197.543 24.7305C143.717 24.7305 100.082 67.393 100.082 120.02C100.082 172.647 143.717 215.309 197.543 215.309C251.37 215.309 295.005 172.647 295.005 120.02Z" fill="#B8D7E9" />
  <path opacity="0.51" d="M289.743 125.164C289.743 72.5366 246.108 29.874 192.282 29.874C138.455 29.874 94.8203 72.5366 94.8203 125.164C94.8203 177.79 138.455 220.453 192.282 220.453C246.108 220.453 289.743 177.79 289.743 125.164Z" fill="#B8D7E9" />
  <path opacity="0.54" d="M284.485 130.306C284.485 77.6791 240.85 35.0166 187.024 35.0166C133.197 35.0166 89.5625 77.6791 89.5625 130.306C89.5625 182.933 133.197 225.596 187.024 225.596C240.85 225.596 284.485 182.933 284.485 130.306Z" fill="#B8D7E9" />
  <path opacity="0.57" d="M279.2 135.472C279.2 82.8452 235.565 40.1826 181.739 40.1826C127.912 40.1826 84.2773 82.8452 84.2773 135.472C84.2773 188.099 127.912 230.762 181.739 230.762C235.565 230.762 279.2 188.099 279.2 135.472Z" fill="#B8D7E9" />
  <path opacity="0.59" d="M273.938 140.613C273.938 87.9858 230.303 45.3232 176.477 45.3232C122.651 45.3232 79.0156 87.9858 79.0156 140.613C79.0156 193.24 122.651 235.902 176.477 235.902C230.303 235.902 273.938 193.24 273.938 140.613Z" fill="#B8D7E9" />
  <path opacity="0.62" d="M268.681 145.756C268.681 93.1293 225.046 50.4668 171.219 50.4668C117.393 50.4668 73.7578 93.1293 73.7578 145.756C73.7578 198.383 117.393 241.046 171.219 241.046C225.046 241.046 268.681 198.383 268.681 145.756Z" fill="#B8D7E9" />
  <path opacity="0.65" d="M263.395 150.922C263.395 98.2954 219.76 55.6328 165.934 55.6328C112.108 55.6328 68.4727 98.2954 68.4727 150.922C68.4727 203.549 112.108 246.212 165.934 246.212C219.76 246.212 263.395 203.549 263.395 150.922Z" fill="#B8D7E9" />
  <path opacity="0.68" d="M258.137 156.066C258.137 103.439 214.502 60.7764 160.676 60.7764C106.85 60.7764 63.2148 103.439 63.2148 156.066C63.2148 208.693 106.85 251.355 160.676 251.355C214.502 251.355 258.137 208.693 258.137 156.066Z" fill="#B8D7E9" />
  <path opacity="0.7" d="M252.852 161.232C252.852 108.605 209.217 65.9424 155.391 65.9424C101.565 65.9424 57.9297 108.605 57.9297 161.232C57.9297 213.859 101.565 256.521 155.391 256.521C209.217 256.521 252.852 213.859 252.852 161.232Z" fill="#B8D7E9" />
  <path opacity="0.73" d="M247.591 166.372C247.591 113.746 203.956 71.083 150.129 71.083C96.3029 71.083 52.668 113.746 52.668 166.372C52.668 218.999 96.3029 261.662 150.129 261.662C203.956 261.662 247.591 218.999 247.591 166.372Z" fill="#B8D7E9" />
  <path opacity="0.76" d="M242.333 171.515C242.333 118.888 198.698 76.2256 144.872 76.2256C91.0451 76.2256 47.4102 118.888 47.4102 171.515C47.4102 224.142 91.0451 266.805 144.872 266.805C198.698 266.805 242.333 224.142 242.333 171.515Z" fill="#B8D7E9" />
  <path opacity="0.78" d="M237.048 176.681C237.048 124.054 193.413 81.3916 139.586 81.3916C85.7599 81.3916 42.125 124.054 42.125 176.681C42.125 229.308 85.7599 271.971 139.586 271.971C193.413 271.971 237.048 229.308 237.048 176.681Z" fill="#B8D7E9" />
  <path opacity="0.81" d="M231.79 181.823C231.79 129.196 188.155 86.5332 134.329 86.5332C80.5021 86.5332 36.8672 129.196 36.8672 181.823C36.8672 234.45 80.5021 277.112 134.329 277.112C188.155 277.112 231.79 234.45 231.79 181.823Z" fill="#B8D7E9" />
  <path opacity="0.84" d="M226.528 186.968C226.528 134.341 182.893 91.6787 129.067 91.6787C75.2404 91.6787 31.6055 134.341 31.6055 186.968C31.6055 239.595 75.2404 282.258 129.067 282.258C182.893 282.258 226.528 239.595 226.528 186.968Z" fill="#B8D7E9" />
  <path opacity="0.86" d="M221.243 192.134C221.243 139.507 177.608 96.8447 123.782 96.8447C69.9553 96.8447 26.3203 139.507 26.3203 192.134C26.3203 244.761 69.9553 287.424 123.782 287.424C177.608 287.424 221.243 244.761 221.243 192.134Z" fill="#B8D7E9" />
  <path opacity="0.89" d="M215.985 197.275C215.985 144.648 172.35 101.985 118.524 101.985C64.6973 101.985 21.0625 144.648 21.0625 197.275C21.0625 249.902 64.6973 292.564 118.524 292.564C172.35 292.564 215.985 249.902 215.985 197.275Z" fill="#B8D7E9" />
  <path opacity="0.92" d="M210.723 202.42C210.723 149.793 167.089 107.131 113.262 107.131C59.4357 107.131 15.8008 149.793 15.8008 202.42C15.8008 255.047 59.4357 297.71 113.262 297.71C167.089 297.71 210.723 255.047 210.723 202.42Z" fill="#B8D7E9" />
  <path opacity="0.95" d="M205.442 207.582C205.442 154.955 161.807 112.292 107.981 112.292C54.1545 112.292 10.5195 154.955 10.5195 207.582C10.5195 260.208 54.1545 302.871 107.981 302.871C161.807 302.871 205.442 260.208 205.442 207.582Z" fill="#B8D7E9" />
  <path opacity="0.97" d="M200.184 212.727C200.184 160.1 156.549 117.438 102.723 117.438C48.8967 117.438 5.26172 160.1 5.26172 212.727C5.26172 265.354 48.8967 308.016 102.723 308.016C156.549 308.016 200.184 265.354 200.184 212.727Z" fill="#B8D7E9" />
  <path d="M194.923 217.869C194.923 165.242 151.288 122.579 97.4614 122.579C43.6349 122.579 0 165.242 0 217.869C0 270.496 43.6349 313.158 97.4614 313.158C151.288 313.158 194.923 270.496 194.923 217.869Z" fill="#B8D7E9" />
  <path opacity="0.03" d="M363.618 264.8C363.618 212.173 319.983 169.511 266.157 169.511C212.33 169.511 168.695 212.173 168.695 264.8C168.695 317.427 212.33 360.09 266.157 360.09C319.983 360.09 363.618 317.427 363.618 264.8Z" fill="#F1D6B7" />
  <path opacity="0.05" d="M368.899 259.655C368.899 207.028 325.264 164.365 271.438 164.365C217.612 164.365 173.977 207.028 173.977 259.655C173.977 312.282 217.612 354.944 271.438 354.944C325.264 354.944 368.899 312.282 368.899 259.655Z" fill="#F1D6B7" />
  <path opacity="0.08" d="M374.157 254.514C374.157 201.887 330.522 159.225 276.696 159.225C222.869 159.225 179.234 201.887 179.234 254.514C179.234 307.141 222.869 349.804 276.696 349.804C330.522 349.804 374.157 307.141 374.157 254.514Z" fill="#F1D6B7" />
  <path opacity="0.11" d="M379.419 249.348C379.419 196.721 335.784 154.059 281.957 154.059C228.131 154.059 184.496 196.721 184.496 249.348C184.496 301.975 228.131 344.638 281.957 344.638C335.784 344.638 379.419 301.975 379.419 249.348Z" fill="#F1D6B7" />
  <path opacity="0.14" d="M384.704 244.207C384.704 191.581 341.069 148.918 287.243 148.918C233.416 148.918 189.781 191.581 189.781 244.207C189.781 296.834 233.416 339.497 287.243 339.497C341.069 339.497 384.704 296.834 384.704 244.207Z" fill="#F1D6B7" />
  <path opacity="0.16" d="M389.962 239.041C389.962 186.414 346.327 143.752 292.5 143.752C238.674 143.752 195.039 186.414 195.039 239.041C195.039 291.668 238.674 334.331 292.5 334.331C346.327 334.331 389.962 291.668 389.962 239.041Z" fill="#F1D6B7" />
  <path opacity="0.19" d="M395.223 233.896C395.223 181.269 351.589 138.606 297.762 138.606C243.936 138.606 200.301 181.269 200.301 233.896C200.301 286.523 243.936 329.185 297.762 329.185C351.589 329.185 395.223 286.523 395.223 233.896Z" fill="#F1D6B7" />
  <path opacity="0.22" d="M400.505 228.754C400.505 176.127 356.87 133.465 303.043 133.465C249.217 133.465 205.582 176.127 205.582 228.754C205.582 281.381 249.217 324.044 303.043 324.044C356.87 324.044 400.505 281.381 400.505 228.754Z" fill="#F1D6B7" />
  <path opacity="0.24" d="M405.766 223.588C405.766 170.961 362.132 128.299 308.305 128.299C254.479 128.299 210.844 170.961 210.844 223.588C210.844 276.215 254.479 318.878 308.305 318.878C362.132 318.878 405.766 276.215 405.766 223.588Z" fill="#F1D6B7" />
  <path opacity="0.27" d="M411.024 218.446C411.024 165.819 367.389 123.156 313.563 123.156C259.737 123.156 216.102 165.819 216.102 218.446C216.102 271.073 259.737 313.735 313.563 313.735C367.389 313.735 411.024 271.073 411.024 218.446Z" fill="#F1D6B7" />
  <path opacity="0.3" d="M416.309 213.305C416.309 160.678 372.674 118.016 318.848 118.016C265.022 118.016 221.387 160.678 221.387 213.305C221.387 265.932 265.022 308.595 318.848 308.595C372.674 308.595 416.309 265.932 416.309 213.305Z" fill="#F1D6B7" />
  <path opacity="0.32" d="M421.567 208.139C421.567 155.512 377.932 112.85 324.106 112.85C270.279 112.85 226.645 155.512 226.645 208.139C226.645 260.766 270.279 303.429 324.106 303.429C377.932 303.429 421.567 260.766 421.567 208.139Z" fill="#F1D6B7" />
  <path opacity="0.35" d="M426.829 202.996C426.829 150.369 383.194 107.706 329.368 107.706C275.541 107.706 231.906 150.369 231.906 202.996C231.906 255.622 275.541 298.285 329.368 298.285C383.194 298.285 426.829 255.622 426.829 202.996Z" fill="#F1D6B7" />
  <path opacity="0.38" d="M432.114 197.852C432.114 145.225 388.479 102.562 334.653 102.562C280.826 102.562 237.191 145.225 237.191 197.852C237.191 250.479 280.826 293.142 334.653 293.142C388.479 293.142 432.114 250.479 432.114 197.852Z" fill="#F1D6B7" />
  <path opacity="0.41" d="M437.372 192.686C437.372 140.059 393.737 97.3965 339.91 97.3965C286.084 97.3965 242.449 140.059 242.449 192.686C242.449 245.313 286.084 287.975 339.91 287.975C393.737 287.975 437.372 245.313 437.372 192.686Z" fill="#F1D6B7" />
  <path opacity="0.43" d="M442.653 187.545C442.653 134.918 399.018 92.2559 345.192 92.2559C291.365 92.2559 247.73 134.918 247.73 187.545C247.73 240.172 291.365 282.835 345.192 282.835C399.018 282.835 442.653 240.172 442.653 187.545Z" fill="#F1D6B7" />
  <path opacity="0.46" d="M447.919 182.4C447.919 129.773 404.284 87.1104 350.458 87.1104C296.631 87.1104 252.996 129.773 252.996 182.4C252.996 235.027 296.631 277.689 350.458 277.689C404.284 277.689 447.919 235.027 447.919 182.4Z" fill="#F1D6B7" />
  <path opacity="0.49" d="M453.173 177.237C453.173 124.61 409.538 81.9473 355.711 81.9473C301.885 81.9473 258.25 124.61 258.25 177.237C258.25 229.864 301.885 272.526 355.711 272.526C409.538 272.526 453.173 229.864 453.173 177.237Z" fill="#F1D6B7" />
  <path opacity="0.51" d="M458.458 172.093C458.458 119.466 414.823 76.8037 360.997 76.8037C307.17 76.8037 263.535 119.466 263.535 172.093C263.535 224.72 307.17 267.383 360.997 267.383C414.823 267.383 458.458 224.72 458.458 172.093Z" fill="#F1D6B7" />
  <path opacity="0.54" d="M463.719 166.927C463.719 114.3 420.085 71.6377 366.258 71.6377C312.432 71.6377 268.797 114.3 268.797 166.927C268.797 219.554 312.432 262.217 366.258 262.217C420.085 262.217 463.719 219.554 463.719 166.927Z" fill="#F1D6B7" />
  <path opacity="0.57" d="M468.981 161.784C468.981 109.157 425.346 66.4941 371.52 66.4941C317.694 66.4941 274.059 109.157 274.059 161.784C274.059 214.411 317.694 257.073 371.52 257.073C425.346 257.073 468.981 214.411 468.981 161.784Z" fill="#F1D6B7" />
  <path opacity="0.59" d="M474.263 156.641C474.263 104.014 430.627 61.3516 376.801 61.3516C322.975 61.3516 279.34 104.014 279.34 156.641C279.34 209.268 322.975 251.931 376.801 251.931C430.627 251.931 474.263 209.268 474.263 156.641Z" fill="#F1D6B7" />
  <path opacity="0.62" d="M479.52 151.474C479.52 98.8471 435.885 56.1846 382.059 56.1846C328.232 56.1846 284.598 98.8471 284.598 151.474C284.598 204.101 328.232 246.764 382.059 246.764C435.885 246.764 479.52 204.101 479.52 151.474Z" fill="#F1D6B7" />
  <path opacity="0.65" d="M484.782 146.333C484.782 93.7065 441.147 51.0439 387.321 51.0439C333.494 51.0439 289.859 93.7065 289.859 146.333C289.859 198.96 333.494 241.623 387.321 241.623C441.147 241.623 484.782 198.96 484.782 146.333Z" fill="#F1D6B7" />
  <path opacity="0.68" d="M490.067 141.191C490.067 88.5639 446.432 45.9014 392.606 45.9014C338.78 45.9014 295.145 88.5639 295.145 141.191C295.145 193.818 338.78 236.48 392.606 236.48C446.432 236.48 490.067 193.818 490.067 141.191Z" fill="#F1D6B7" />
  <path opacity="0.7" d="M495.325 136.025C495.325 83.3979 451.69 40.7354 397.864 40.7354C344.037 40.7354 300.402 83.3979 300.402 136.025C300.402 188.652 344.037 231.314 397.864 231.314C451.69 231.314 495.325 188.652 495.325 136.025Z" fill="#F1D6B7" />
  <path opacity="0.73" d="M500.587 130.881C500.587 78.2543 456.952 35.5918 403.125 35.5918C349.299 35.5918 305.664 78.2543 305.664 130.881C305.664 183.508 349.299 226.171 403.125 226.171C456.952 226.171 500.587 183.508 500.587 130.881Z" fill="#F1D6B7" />
  <path opacity="0.76" d="M505.868 125.741C505.868 73.1138 462.233 30.4512 408.407 30.4512C354.58 30.4512 310.945 73.1138 310.945 125.741C310.945 178.368 354.58 221.03 408.407 221.03C462.233 221.03 505.868 178.368 505.868 125.741Z" fill="#F1D6B7" />
  <path opacity="0.78" d="M511.13 120.575C511.13 67.9477 467.495 25.2852 413.668 25.2852C359.842 25.2852 316.207 67.9477 316.207 120.575C316.207 173.202 359.842 215.864 413.668 215.864C467.495 215.864 511.13 173.202 511.13 120.575Z" fill="#F1D6B7" />
  <path opacity="0.81" d="M516.415 115.431C516.415 62.8042 472.78 20.1416 418.953 20.1416C365.127 20.1416 321.492 62.8042 321.492 115.431C321.492 168.058 365.127 210.721 418.953 210.721C472.78 210.721 516.415 168.058 516.415 115.431Z" fill="#F1D6B7" />
  <path opacity="0.84" d="M521.673 110.29C521.673 57.6626 478.038 15 424.211 15C370.385 15 326.75 57.6626 326.75 110.29C326.75 162.916 370.385 205.579 424.211 205.579C478.038 205.579 521.673 162.916 521.673 110.29Z" fill="#F1D6B7" />
  <path opacity="0.86" d="M526.934 105.122C526.934 52.4955 483.3 9.83301 429.473 9.83301C375.647 9.83301 332.012 52.4955 332.012 105.122C332.012 157.749 375.647 200.412 429.473 200.412C483.3 200.412 526.934 157.749 526.934 105.122Z" fill="#F1D6B7" />
  <path opacity="0.89" d="M532.216 99.9809C532.216 47.354 488.581 4.69141 434.754 4.69141C380.928 4.69141 337.293 47.354 337.293 99.9809C337.293 152.608 380.928 195.27 434.754 195.27C488.581 195.27 532.216 152.608 532.216 99.9809Z" fill="#F1D6B7" />
  <path opacity="0.92" d="M537.477 94.8149C537.477 42.1879 493.843 -0.474609 440.016 -0.474609C386.19 -0.474609 342.555 42.1879 342.555 94.8149C342.555 147.442 386.19 190.104 440.016 190.104C493.843 190.104 537.477 147.442 537.477 94.8149Z" fill="#F1D6B7" />
  <path opacity="0.95" d="M542.735 89.6713C542.735 37.0444 499.1 -5.61816 445.274 -5.61816C391.447 -5.61816 347.812 37.0444 347.812 89.6713C347.812 142.298 391.447 184.961 445.274 184.961C499.1 184.961 542.735 142.298 542.735 89.6713Z" fill="#F1D6B7" />
  <path opacity="0.97" d="M548.016 84.5288C548.016 31.9018 504.381 -10.7607 450.555 -10.7607C396.729 -10.7607 353.094 31.9018 353.094 84.5288C353.094 137.156 396.729 179.818 450.555 179.818C504.381 179.818 548.016 137.156 548.016 84.5288Z" fill="#F1D6B7" />
  <path d="M553.282 79.3628C553.282 26.7358 509.647 -15.9268 455.821 -15.9268C401.994 -15.9268 358.359 26.7358 358.359 79.3628C358.359 131.99 401.994 174.652 455.821 174.652C509.647 174.652 553.282 131.99 553.282 79.3628Z" fill="#F1D6B7" />
</svg>