<svg width="660" height="608" viewBox="0 0 660 608" fill="none"
  xmlns="http://www.w3.org/2000/svg">
  <path opacity="0.03" d="M375.231 173.682C375.231 82.8161 301.57 9.15454 210.704 9.15454C119.837 9.15454 46.1758 82.8161 46.1758 173.682C46.1758 264.548 119.837 338.21 210.704 338.21C301.57 338.21 375.231 264.548 375.231 173.682Z" fill="#A6A1FB"/>
  <path opacity="0.05" d="M366.313 182.599C366.313 91.7324 292.652 18.0708 201.786 18.0708C110.919 18.0708 37.2578 91.7324 37.2578 182.599C37.2578 273.465 110.919 347.126 201.786 347.126C292.652 347.126 366.313 273.465 366.313 182.599Z" fill="#A7A3FB"/>
  <path opacity="0.08" d="M357.434 191.479C357.434 100.613 283.773 26.9509 192.907 26.9509C102.04 26.9509 28.3789 100.613 28.3789 191.479C28.3789 282.345 102.04 356.006 192.907 356.006C283.773 356.006 357.434 282.345 357.434 191.479Z" fill="#A7A4FA"/>
  <path opacity="0.11" d="M348.52 200.395C348.52 109.529 274.859 35.8672 183.993 35.8672C93.1264 35.8672 19.4648 109.529 19.4648 200.395C19.4648 291.261 93.1264 364.923 183.993 364.923C274.859 364.923 348.52 291.261 348.52 200.395Z" fill="#A8A6FA"/>
  <path opacity="0.14" d="M339.641 209.275C339.641 118.409 265.98 44.7473 175.114 44.7473C84.2475 44.7473 10.5859 118.409 10.5859 209.275C10.5859 300.141 84.2475 373.803 175.114 373.803C265.98 373.803 339.641 300.141 339.641 209.275Z" fill="#A8A7F9"/>
  <path opacity="0.16" d="M330.763 218.155C330.763 127.289 257.101 53.6274 166.235 53.6274C75.3686 53.6274 1.70703 127.289 1.70703 218.155C1.70703 309.021 75.3686 382.683 166.235 382.683C257.101 382.683 330.763 309.021 330.763 218.155Z" fill="#A9A9F9"/>
  <path opacity="0.19" d="M321.845 227.07C321.845 136.204 248.183 62.5422 157.317 62.5422C66.4506 62.5422 -7.21094 136.204 -7.21094 227.07C-7.21094 317.936 66.4506 391.598 157.317 391.598C248.183 391.598 321.845 317.936 321.845 227.07Z" fill="#A9AAF8"/>
  <path opacity="0.22" d="M312.966 235.947C312.966 145.081 239.304 71.4192 148.438 71.4192C57.5717 71.4192 -16.0898 145.081 -16.0898 235.947C-16.0898 326.813 57.5717 400.475 148.438 400.475C239.304 400.475 312.966 326.813 312.966 235.947Z" fill="#AAACF8"/>
  <path opacity="0.24" d="M304.083 244.866C304.083 154 230.421 80.3386 139.555 80.3386C48.6889 80.3386 -24.9727 154 -24.9727 244.866C-24.9727 335.733 48.6889 409.394 139.555 409.394C230.421 409.394 304.083 335.733 304.083 244.866Z" fill="#AAADF7"/>
  <path opacity="0.27" d="M295.169 253.743C295.169 162.877 221.507 89.2156 130.641 89.2156C39.7749 89.2156 -33.8867 162.877 -33.8867 253.743C-33.8867 344.609 39.7749 418.271 130.641 418.271C221.507 418.271 295.169 344.609 295.169 253.743Z" fill="#ABAFF7"/>
  <path opacity="0.3" d="M286.29 262.623C286.29 171.757 212.628 98.0957 121.762 98.0957C30.896 98.0957 -42.7656 171.757 -42.7656 262.623C-42.7656 353.49 30.896 427.151 121.762 427.151C212.628 427.151 286.29 353.49 286.29 262.623Z" fill="#ABB0F6"/>
  <path opacity="0.32" d="M277.372 271.538C277.372 180.672 203.71 107.01 112.844 107.01C21.978 107.01 -51.6836 180.672 -51.6836 271.538C-51.6836 362.404 21.978 436.066 112.844 436.066C203.71 436.066 277.372 362.404 277.372 271.538Z" fill="#ACB2F6"/>
  <path opacity="0.35" d="M268.493 280.418C268.493 189.552 194.831 115.891 103.965 115.891C13.0991 115.891 -60.5625 189.552 -60.5625 280.418C-60.5625 371.285 13.0991 444.946 103.965 444.946C194.831 444.946 268.493 371.285 268.493 280.418Z" fill="#ACB3F5"/>
  <path opacity="0.38" d="M259.614 289.298C259.614 198.432 185.953 124.771 95.0863 124.771C4.22018 124.771 -69.4414 198.432 -69.4414 289.298C-69.4414 380.165 4.22018 453.826 95.0863 453.826C185.953 453.826 259.614 380.165 259.614 289.298Z" fill="#ADB5F5"/>
  <path opacity="0.41" d="M250.7 298.215C250.7 207.349 177.038 133.687 86.1723 133.687C-4.69389 133.687 -78.3555 207.349 -78.3555 298.215C-78.3555 389.081 -4.69389 462.742 86.1723 462.742C177.038 462.742 250.7 389.081 250.7 298.215Z" fill="#ADB6F4"/>
  <path opacity="0.43" d="M241.817 307.095C241.817 216.229 168.156 142.567 77.2895 142.567C-13.5767 142.567 -87.2383 216.229 -87.2383 307.095C-87.2383 397.961 -13.5767 471.623 77.2895 471.623C168.156 471.623 241.817 397.961 241.817 307.095Z" fill="#AEB8F4"/>
  <path opacity="0.46" d="M232.903 316.011C232.903 225.145 159.242 151.483 68.3754 151.483C-22.4908 151.483 -96.1523 225.145 -96.1523 316.011C-96.1523 406.877 -22.4908 480.539 68.3754 480.539C159.242 480.539 232.903 406.877 232.903 316.011Z" fill="#AEB9F3"/>
  <path opacity="0.49" d="M224.024 324.891C224.024 234.025 150.363 160.364 59.4965 160.364C-31.3697 160.364 -105.031 234.025 -105.031 324.891C-105.031 415.757 -31.3697 489.419 59.4965 489.419C150.363 489.419 224.024 415.757 224.024 324.891Z" fill="#AFBBF3"/>
  <path opacity="0.51" d="M215.145 333.771C215.145 242.905 141.484 169.244 50.6176 169.244C-40.2486 169.244 -113.91 242.905 -113.91 333.771C-113.91 424.638 -40.2486 498.299 50.6176 498.299C141.484 498.299 215.145 424.638 215.145 333.771Z" fill="#AFBCF2"/>
  <path opacity="0.54" d="M206.227 342.688C206.227 251.821 132.566 178.16 41.6996 178.16C-49.1665 178.16 -122.828 251.821 -122.828 342.688C-122.828 433.554 -49.1665 507.215 41.6996 507.215C132.566 507.215 206.227 433.554 206.227 342.688Z" fill="#B0BEF2"/>
  <path opacity="0.57" d="M197.348 351.568C197.348 260.702 123.687 187.04 32.8207 187.04C-58.0455 187.04 -131.707 260.702 -131.707 351.568C-131.707 442.434 -58.0455 516.096 32.8207 516.096C123.687 516.096 197.348 442.434 197.348 351.568Z" fill="#B0BFF1"/>
  <path opacity="0.59" d="M188.47 360.483C188.47 269.616 114.808 195.955 23.9418 195.955C-66.9244 195.955 -140.586 269.616 -140.586 360.483C-140.586 451.349 -66.9244 525.01 23.9418 525.01C114.808 525.01 188.47 451.349 188.47 360.483Z" fill="#B1C1F1"/>
  <path opacity="0.62" d="M179.552 369.36C179.552 278.493 105.89 204.832 15.0239 204.832C-75.8423 204.832 -149.504 278.493 -149.504 369.36C-149.504 460.226 -75.8423 533.887 15.0239 533.887C105.89 533.887 179.552 460.226 179.552 369.36Z" fill="#B1C2F0"/>
  <path opacity="0.65" d="M170.673 378.24C170.673 287.373 97.0111 213.712 6.14493 213.712C-84.7212 213.712 -158.383 287.373 -158.383 378.24C-158.383 469.106 -84.7212 542.767 6.14493 542.767C97.0111 542.767 170.673 469.106 170.673 378.24Z" fill="#B2C4F0"/>
  <path opacity="0.68" d="M161.755 387.156C161.755 296.29 88.0931 222.628 -2.77303 222.628C-93.6392 222.628 -167.301 296.29 -167.301 387.156C-167.301 478.022 -93.6392 551.684 -2.77303 551.684C88.0931 551.684 161.755 478.022 161.755 387.156Z" fill="#B2C5EF"/>
  <path opacity="0.7" d="M152.876 396.036C152.876 305.17 79.2142 231.508 -11.6519 231.508C-102.518 231.508 -176.18 305.17 -176.18 396.036C-176.18 486.902 -102.518 560.564 -11.6519 560.564C79.2142 560.564 152.876 486.902 152.876 396.036Z" fill="#B3C7EF"/>
  <path opacity="0.73" d="M143.997 404.916C143.997 314.05 70.3353 240.388 -20.5309 240.388C-111.397 240.388 -185.059 314.05 -185.059 404.916C-185.059 495.782 -111.397 569.444 -20.5309 569.444C70.3353 569.444 143.997 495.782 143.997 404.916Z" fill="#B3C8EE"/>
  <path opacity="0.76" d="M135.083 413.832C135.083 322.966 61.4212 249.305 -29.4449 249.305C-120.311 249.305 -193.973 322.966 -193.973 413.832C-193.973 504.699 -120.311 578.36 -29.4449 578.36C61.4212 578.36 135.083 504.699 135.083 413.832Z" fill="#B4CAEE"/>
  <path opacity="0.78" d="M126.2 422.713C126.2 331.846 52.5384 258.185 -38.3277 258.185C-129.194 258.185 -202.855 331.846 -202.855 422.713C-202.855 513.579 -129.194 587.24 -38.3277 587.24C52.5384 587.24 126.2 513.579 126.2 422.713Z" fill="#B4CBED"/>
  <path opacity="0.81" d="M117.286 431.627C117.286 340.761 43.6244 267.1 -47.2418 267.1C-138.108 267.1 -211.77 340.761 -211.77 431.627C-211.77 522.494 -138.108 596.155 -47.2418 596.155C43.6244 596.155 117.286 522.494 117.286 431.627Z" fill="#B5CDED"/>
  <path opacity="0.84" d="M108.407 440.507C108.407 349.641 34.7455 275.98 -56.1207 275.98C-146.987 275.98 -220.648 349.641 -220.648 440.507C-220.648 531.374 -146.987 605.035 -56.1207 605.035C34.7455 605.035 108.407 531.374 108.407 440.507Z" fill="#B5CEEC"/>
  <path opacity="0.86" d="M99.5242 449.387C99.5242 358.521 25.8627 284.86 -65.0035 284.86C-155.87 284.86 -229.531 358.521 -229.531 449.387C-229.531 540.254 -155.87 613.915 -65.0035 613.915C25.8627 613.915 99.5242 540.254 99.5242 449.387Z" fill="#B6D0EC"/>
  <path opacity="0.89" d="M90.6102 458.304C90.6102 367.438 16.9486 293.776 -73.9176 293.776C-164.784 293.776 -238.445 367.438 -238.445 458.304C-238.445 549.17 -164.784 622.832 -73.9176 622.832C16.9486 622.832 90.6102 549.17 90.6102 458.304Z" fill="#B6D1EB"/>
  <path opacity="0.92" d="M81.7313 467.184C81.7313 376.318 8.06969 302.656 -82.7965 302.656C-173.663 302.656 -247.324 376.318 -247.324 467.184C-247.324 558.05 -173.663 631.712 -82.7965 631.712C8.06969 631.712 81.7313 558.05 81.7313 467.184Z" fill="#B7D3EB"/>
  <path opacity="0.95" d="M72.8524 476.064C72.8524 385.198 -0.809219 311.536 -91.6754 311.536C-182.542 311.536 -256.203 385.198 -256.203 476.064C-256.203 566.93 -182.542 640.592 -91.6754 640.592C-0.809219 640.592 72.8524 566.93 72.8524 476.064Z" fill="#B7D4EA"/>
  <path opacity="0.97" d="M63.9344 484.98C63.9344 394.114 -9.72719 320.453 -100.593 320.453C-191.46 320.453 -265.121 394.114 -265.121 484.98C-265.121 575.847 -191.46 649.508 -100.593 649.508C-9.72719 649.508 63.9344 575.847 63.9344 484.98Z" fill="#B8D6EA"/>
  <path d="M55.0555 493.856C55.0555 402.99 -18.6061 329.328 -109.472 329.328C-200.338 329.328 -274 402.99 -274 493.856C-274 584.722 -200.338 658.384 -109.472 658.384C-18.6061 658.384 55.0555 584.722 55.0555 493.856Z" fill="#B8D7E9"/>
  <path opacity="0.03" d="M339.864 574.88C339.864 484.014 266.202 410.353 175.336 410.353C84.4701 410.353 10.8086 484.014 10.8086 574.88C10.8086 665.746 84.4701 739.408 175.336 739.408C266.202 739.408 339.864 665.746 339.864 574.88Z" fill="#A7A0F8"/>
  <path opacity="0.05" d="M348.743 566C348.743 475.134 275.081 401.472 184.215 401.472C93.349 401.472 19.6875 475.134 19.6875 566C19.6875 656.866 93.349 730.528 184.215 730.528C275.081 730.528 348.743 656.866 348.743 566Z" fill="#A99FF3"/>
  <path opacity="0.08" d="M357.622 557.084C357.622 466.218 283.96 392.556 193.094 392.556C102.228 392.556 28.5664 466.218 28.5664 557.084C28.5664 647.95 102.228 721.612 193.094 721.612C283.96 721.612 357.622 647.95 357.622 557.084Z" fill="#AA9FEF"/>
  <path opacity="0.11" d="M366.54 548.204C366.54 457.338 292.878 383.676 202.012 383.676C111.146 383.676 37.4844 457.338 37.4844 548.204C37.4844 639.07 111.146 712.732 202.012 712.732C292.878 712.732 366.54 639.07 366.54 548.204Z" fill="#AC9FEA"/>
  <path opacity="0.14" d="M375.415 539.324C375.415 448.458 301.753 374.796 210.887 374.796C120.021 374.796 46.3594 448.458 46.3594 539.324C46.3594 630.19 120.021 703.852 210.887 703.852C301.753 703.852 375.415 630.19 375.415 539.324Z" fill="#AD9EE6"/>
  <path opacity="0.16" d="M384.333 530.407C384.333 439.541 310.671 365.88 219.805 365.88C128.939 365.88 55.2773 439.541 55.2773 530.407C55.2773 621.274 128.939 694.935 219.805 694.935C310.671 694.935 384.333 621.274 384.333 530.407Z" fill="#AF9EE1"/>
  <path opacity="0.19" d="M393.212 521.527C393.212 430.661 319.55 357 228.684 357C137.818 357 64.1562 430.661 64.1562 521.527C64.1562 612.393 137.818 686.055 228.684 686.055C319.55 686.055 393.212 612.393 393.212 521.527Z" fill="#B09EDD"/>
  <path opacity="0.22" d="M402.095 512.647C402.095 421.781 328.433 348.12 237.567 348.12C146.701 348.12 73.0391 421.781 73.0391 512.647C73.0391 603.513 146.701 677.175 237.567 677.175C328.433 677.175 402.095 603.513 402.095 512.647Z" fill="#B29DD8"/>
  <path opacity="0.24" d="M411.009 503.731C411.009 412.865 337.347 339.203 246.481 339.203C155.615 339.203 81.9531 412.865 81.9531 503.731C81.9531 594.597 155.615 668.259 246.481 668.259C337.347 668.259 411.009 594.597 411.009 503.731Z" fill="#B39DD4"/>
  <path opacity="0.27" d="M419.887 494.851C419.887 403.985 346.226 330.323 255.36 330.323C164.494 330.323 90.832 403.985 90.832 494.851C90.832 585.717 164.494 659.379 255.36 659.379C346.226 659.379 419.887 585.717 419.887 494.851Z" fill="#B59DCF"/>
  <path opacity="0.3" d="M428.766 485.936C428.766 395.07 355.105 321.408 264.239 321.408C173.373 321.408 99.7109 395.07 99.7109 485.936C99.7109 576.802 173.373 650.464 264.239 650.464C355.105 650.464 428.766 576.802 428.766 485.936Z" fill="#B69CCB"/>
  <path opacity="0.32" d="M437.684 477.056C437.684 386.19 364.023 312.528 273.157 312.528C182.29 312.528 108.629 386.19 108.629 477.056C108.629 567.922 182.29 641.584 273.157 641.584C364.023 641.584 437.684 567.922 437.684 477.056Z" fill="#B89CC6"/>
  <path opacity="0.35" d="M446.563 468.179C446.563 377.313 372.902 303.651 282.036 303.651C191.169 303.651 117.508 377.313 117.508 468.179C117.508 559.045 191.169 632.707 282.036 632.707C372.902 632.707 446.563 559.045 446.563 468.179Z" fill="#B99CC2"/>
  <path opacity="0.38" d="M455.477 459.26C455.477 368.394 381.816 294.732 290.95 294.732C200.083 294.732 126.422 368.394 126.422 459.26C126.422 550.126 200.083 623.787 290.95 623.787C381.816 623.787 455.477 550.126 455.477 459.26Z" fill="#BA9BBE"/>
  <path opacity="0.41" d="M464.36 450.382C464.36 359.516 390.699 285.855 299.832 285.855C208.966 285.855 135.305 359.516 135.305 450.382C135.305 541.249 208.966 614.91 299.832 614.91C390.699 614.91 464.36 541.249 464.36 450.382Z" fill="#BC9BB9"/>
  <path opacity="0.43" d="M473.239 441.468C473.239 350.602 399.577 276.94 308.711 276.94C217.845 276.94 144.184 350.602 144.184 441.468C144.184 532.334 217.845 605.995 308.711 605.995C399.577 605.995 473.239 532.334 473.239 441.468Z" fill="#BD9BB5"/>
  <path opacity="0.46" d="M482.153 432.588C482.153 341.722 408.492 268.06 317.625 268.06C226.759 268.06 153.098 341.722 153.098 432.588C153.098 523.454 226.759 597.116 317.625 597.116C408.492 597.116 482.153 523.454 482.153 432.588Z" fill="#BF9AB0"/>
  <path opacity="0.49" d="M491.036 423.708C491.036 332.842 417.374 259.18 326.508 259.18C235.642 259.18 161.98 332.842 161.98 423.708C161.98 514.574 235.642 588.235 326.508 588.235C417.374 588.235 491.036 514.574 491.036 423.708Z" fill="#C09AAC"/>
  <path opacity="0.51" d="M499.95 414.791C499.95 323.925 426.288 250.263 335.422 250.263C244.556 250.263 170.895 323.925 170.895 414.791C170.895 505.657 244.556 579.319 335.422 579.319C426.288 579.319 499.95 505.657 499.95 414.791Z" fill="#C29AA7"/>
  <path opacity="0.54" d="M508.829 405.911C508.829 315.045 435.167 241.384 344.301 241.384C253.435 241.384 179.773 315.045 179.773 405.911C179.773 496.778 253.435 570.439 344.301 570.439C435.167 570.439 508.829 496.778 508.829 405.911Z" fill="#C39AA3"/>
  <path opacity="0.57" d="M517.708 397.031C517.708 306.165 444.046 232.503 353.18 232.503C262.314 232.503 188.652 306.165 188.652 397.031C188.652 487.897 262.314 561.559 353.18 561.559C444.046 561.559 517.708 487.897 517.708 397.031Z" fill="#C5999E"/>
  <path opacity="0.59" d="M526.626 388.115C526.626 297.249 452.964 223.587 362.098 223.587C271.232 223.587 197.57 297.249 197.57 388.115C197.57 478.981 271.232 552.643 362.098 552.643C452.964 552.643 526.626 478.981 526.626 388.115Z" fill="#C6999A"/>
  <path opacity="0.62" d="M535.505 379.235C535.505 288.369 461.843 214.707 370.977 214.707C280.111 214.707 206.449 288.369 206.449 379.235C206.449 470.101 280.111 543.763 370.977 543.763C461.843 543.763 535.505 470.101 535.505 379.235Z" fill="#C89995"/>
  <path opacity="0.65" d="M544.384 370.318C544.384 279.452 470.722 205.791 379.856 205.791C288.99 205.791 215.328 279.452 215.328 370.318C215.328 461.184 288.99 534.846 379.856 534.846C470.722 534.846 544.384 461.184 544.384 370.318Z" fill="#C99891"/>
  <path opacity="0.68" d="M553.302 361.438C553.302 270.572 479.64 196.911 388.774 196.911C297.908 196.911 224.246 270.572 224.246 361.438C224.246 452.305 297.908 525.966 388.774 525.966C479.64 525.966 553.302 452.305 553.302 361.438Z" fill="#CA988D"/>
  <path opacity="0.7" d="M562.18 352.558C562.18 261.692 488.519 188.031 397.653 188.031C306.787 188.031 233.125 261.692 233.125 352.558C233.125 443.424 306.787 517.086 397.653 517.086C488.519 517.086 562.18 443.424 562.18 352.558Z" fill="#CC9888"/>
  <path opacity="0.73" d="M571.098 343.643C571.098 252.777 497.437 179.116 406.571 179.116C315.705 179.116 242.043 252.777 242.043 343.643C242.043 434.51 315.705 508.171 406.571 508.171C497.437 508.171 571.098 434.51 571.098 343.643Z" fill="#CD9784"/>
  <path opacity="0.76" d="M579.973 334.767C579.973 243.9 506.312 170.239 415.446 170.239C324.58 170.239 250.918 243.9 250.918 334.767C250.918 425.633 324.58 499.294 415.446 499.294C506.312 499.294 579.973 425.633 579.973 334.767Z" fill="#CF977F"/>
  <path opacity="0.78" d="M588.856 325.886C588.856 235.02 515.195 161.359 424.329 161.359C333.462 161.359 259.801 235.02 259.801 325.886C259.801 416.753 333.462 490.414 424.329 490.414C515.195 490.414 588.856 416.753 588.856 325.886Z" fill="#D0977B"/>
  <path opacity="0.81" d="M597.77 316.97C597.77 226.104 524.109 152.442 433.243 152.442C342.376 152.442 268.715 226.104 268.715 316.97C268.715 407.836 342.376 481.498 433.243 481.498C524.109 481.498 597.77 407.836 597.77 316.97Z" fill="#D29676"/>
  <path opacity="0.84" d="M606.653 308.09C606.653 217.224 532.992 143.562 442.125 143.562C351.259 143.562 277.598 217.224 277.598 308.09C277.598 398.956 351.259 472.618 442.125 472.618C532.992 472.618 606.653 398.956 606.653 308.09Z" fill="#D39672"/>
  <path opacity="0.86" d="M615.567 299.173C615.567 208.307 541.906 134.646 451.039 134.646C360.173 134.646 286.512 208.307 286.512 299.173C286.512 390.04 360.173 463.701 451.039 463.701C541.906 463.701 615.567 390.04 615.567 299.173Z" fill="#D5966D"/>
  <path opacity="0.89" d="M624.446 290.294C624.446 199.427 550.785 125.766 459.918 125.766C369.052 125.766 295.391 199.427 295.391 290.294C295.391 381.16 369.052 454.821 459.918 454.821C550.785 454.821 624.446 381.16 624.446 290.294Z" fill="#D69569"/>
  <path opacity="0.92" d="M633.325 281.415C633.325 190.549 559.663 116.887 468.797 116.887C377.931 116.887 304.27 190.549 304.27 281.415C304.27 372.281 377.931 445.943 468.797 445.943C559.663 445.943 633.325 372.281 633.325 281.415Z" fill="#D89564"/>
  <path opacity="0.95" d="M642.243 272.499C642.243 181.633 568.581 107.971 477.715 107.971C386.849 107.971 313.188 181.633 313.188 272.499C313.188 363.365 386.849 437.026 477.715 437.026C568.581 437.026 642.243 363.365 642.243 272.499Z" fill="#D99560"/>
  <path opacity="0.97" d="M651.122 263.619C651.122 172.752 577.46 99.0908 486.594 99.0908C395.728 99.0908 322.066 172.752 322.066 263.619C322.066 354.485 395.728 428.146 486.594 428.146C577.46 428.146 651.122 354.485 651.122 263.619Z" fill="#DB945B"/>
  <path d="M660.001 254.702C660.001 163.836 586.339 90.1746 495.473 90.1746C404.607 90.1746 330.945 163.836 330.945 254.702C330.945 345.568 404.607 419.23 495.473 419.23C586.339 419.23 660.001 345.568 660.001 254.702Z" fill="#DC9457"/>
</svg>
