<?xml version="1.0" encoding="utf-8"?>
<!-- Generator: Adobe Illustrator 26.0.0, SVG Export Plug-In . SVG Version: 6.00 Build 0)  -->
<svg version="1.1" id="Layer_1" xmlns="http://www.w3.org/2000/svg" xmlns:xlink="http://www.w3.org/1999/xlink" x="0px" y="0px"
	 viewBox="0 0 541.9 140.8" style="enable-background:new 0 0 541.9 140.8;" xml:space="preserve">
<style type="text/css">
	.st0{display:none;}
	.st1{display:inline;fill:#180043;}
	.st2{display:inline;}
	.st3{fill:#B6B2BF;}
	.st4{font-family:'ArialMT';}
	.st5{font-size:18.0783px;}
	.st6{letter-spacing:5;}
	.st7{fill:url(#SVGID_1_);}
	.st8{fill:url(#SVGID_00000147899603377300996910000003480630316305487031_);}
	.st9{fill:url(#SVGID_00000018213092244514090370000017146828937725968305_);}
	.st10{fill:url(#SVGID_00000007388102205411873070000002478339080268423582_);}
	.st11{fill:url(#SVGID_00000010300570080508526060000007892879204263854762_);}
	.st12{fill:url(#SVGID_00000124882438059896565460000014753488185972225947_);}
	.st13{fill:url(#SVGID_00000086677555103936554310000012593088251387147154_);}
	.st14{fill:url(#SVGID_00000127001670514412568060000015222722612962613901_);}
	.st15{fill:url(#SVGID_00000036933199880321879010000009913561507421707926_);}
	.st16{fill:url(#SVGID_00000093151068813975567490000004357652401938331286_);}
	.st17{fill:url(#SVGID_00000124884659287761049700000012521364770425547930_);}
	.st18{fill:url(#SVGID_00000116215644034081665410000000100473816047723424_);}
	.st19{fill:url(#SVGID_00000178904543974430471340000000843314119972240025_);}
	.st20{fill:url(#SVGID_00000163764649007159018400000010028281452104060602_);}
	.st21{fill:url(#SVGID_00000057845769034326958660000014910956259767267517_);}
	.st22{fill:url(#SVGID_00000117664302649258339530000000038775147722498206_);}
	.st23{fill:url(#SVGID_00000039106316873335426360000004022198579876967557_);}
	.st24{fill:url(#SVGID_00000119103989120653987510000016466462722168418471_);}
	.st25{fill:url(#SVGID_00000141441073648920404480000016796473848348839090_);}
	.st26{fill:url(#SVGID_00000114054071885614192830000016329906706247159693_);}
	.st27{fill:url(#SVGID_00000075850387274352433180000016055273790637807782_);}
	.st28{fill:url(#SVGID_00000036961963432846906310000014879244490855909511_);}
	.st29{fill:url(#SVGID_00000099620437715110080180000013745799993973622692_);}
	.st30{fill:url(#SVGID_00000106142187207358578970000000846288999071253938_);}
	.st31{fill:#CB2EFF;}
	.st32{font-family:'Arial-BoldMT';}
	.st33{font-size:100px;}
</style>
<g id="BACKGROUND" class="st0">
	<rect x="-226.1" y="-429.6" class="st1" width="1000" height="1000"/>
</g>
<g id="OBJECTS">
	<g class="st0">
		<g class="st2">
			
				<text transform="matrix(1 0 0 1 -100.2849 -20.5863)" class="st4" style="fill:#F5F5F5; font-size:35.1818px; letter-spacing:10;">LOGONAME</text>
			<text transform="matrix(1 0 0 1 -46.1902 11.3785)" class="st3 st4 st5 st6">SLOGAN HERE</text>
		</g>
		<g class="st2">
			<g>
				
					<linearGradient id="SVGID_1_" gradientUnits="userSpaceOnUse" x1="163.0639" y1="224.6525" x2="100.1582" y2="402.2092" gradientTransform="matrix(1 0 0 -1 0 138.6498)">
					<stop  offset="0" style="stop-color:#7948FF"/>
					<stop  offset="1" style="stop-color:#FFA2FF"/>
				</linearGradient>
				<rect x="104.1" y="-227" class="st7" width="27.8" height="27.8"/>
				
					<linearGradient id="SVGID_00000183212665197748583620000012127067920529340075_" gradientUnits="userSpaceOnUse" x1="79.3549" y1="192.8242" x2="20.1696" y2="359.8961" gradientTransform="matrix(1 0 0 -1 0 138.6498)">
					<stop  offset="0" style="stop-color:#7948FF"/>
					<stop  offset="1" style="stop-color:#FFA2FF"/>
				</linearGradient>
				<path style="fill:url(#SVGID_00000183212665197748583620000012127067920529340075_);" d="M131.9-188.2v85.2
					c0,5.1-4.1,9.2-9.3,9.2h-14.6c-2.5,0-4.8-1-6.5-2.7L93-105v11.2H65.3v-38.9h0.1l0-0.1l-0.1-0.1v0.1H10.9L-6.9-93.8h-27.8
					l17.8-38.9l12.7-27.8l23-50.2l5-11c1.5-3.3,4.8-5.4,8.4-5.4h51.5c5.1,0,9.2,4.1,9.2,9.3v57.4h-0.4l-7-7l-4.1-4.1h-6.3v0h-9.4
					l-0.5-0.5v-27.3H41.4l-1.9,4.1l-15.9,34.8H73c2.5,0,4.8,1,6.5,2.7l24.5,24.5v-55L131.9-188.2L131.9-188.2z"/>
				
					<linearGradient id="SVGID_00000004511005001504733350000004459746248844605871_" gradientUnits="userSpaceOnUse" x1="146.7798" y1="337.8056" x2="84.2122" y2="223.8311" gradientTransform="matrix(1 0 0 -1 0 138.6498)">
					<stop  offset="0" style="stop-color:#7948FF"/>
					<stop  offset="1" style="stop-color:#FFA2FF"/>
				</linearGradient>
				<polygon style="fill:url(#SVGID_00000004511005001504733350000004459746248844605871_);" points="131.9,-188.2 131.9,-105.4 
					104.1,-133.1 104.1,-188.2 				"/>
			</g>
			<g>
				
					<linearGradient id="SVGID_00000064322198107156639790000000681677200973646245_" gradientUnits="userSpaceOnUse" x1="-13.0238" y1="274.3559" x2="-9.8945" y2="211.3205" gradientTransform="matrix(1 0 0 -1 0 138.6498)">
					<stop  offset="0" style="stop-color:#7948FF"/>
					<stop  offset="1" style="stop-color:#FFA2FF"/>
				</linearGradient>
				<path style="fill:url(#SVGID_00000064322198107156639790000000681677200973646245_);" d="M10.9-132.6L-6.9-93.8h-27.8l14.9-32.4
					c1.8-3.9,5.7-6.5,10.1-6.5H10.9z"/>
				
					<linearGradient id="SVGID_00000016767311389181586590000007288662423373816731_" gradientUnits="userSpaceOnUse" x1="5.6223" y1="287.8911" x2="31.5748" y2="348.7175" gradientTransform="matrix(1 0 0 -1 0 138.6498)">
					<stop  offset="0" style="stop-color:#7948FF"/>
					<stop  offset="1" style="stop-color:#FFA2FF"/>
				</linearGradient>
				<path style="fill:url(#SVGID_00000016767311389181586590000007288662423373816731_);" d="M39.6-195.2l-15.9,34.8H2.9
					c-3.3,0-5.5-3.4-4.1-6.4l20.1-43.9h8.6C27.4-210.6,33.9-202.5,39.6-195.2z"/>
				
					<linearGradient id="SVGID_00000183241830764379975660000010860162057961634998_" gradientUnits="userSpaceOnUse" x1="78.7941" y1="343.0793" x2="79.9214" y2="283.4427" gradientTransform="matrix(1 0 0 -1 0 138.6498)">
					<stop  offset="0" style="stop-color:#7948FF"/>
					<stop  offset="1" style="stop-color:#FFA2FF"/>
				</linearGradient>
				<polygon style="fill:url(#SVGID_00000183241830764379975660000010860162057961634998_);" points="93,-199.3 93,-160.4 
					92.6,-160.4 85.6,-167.4 81.4,-171.5 75.1,-171.5 75.1,-171.6 65.7,-171.6 65.3,-172 65.3,-199.3 				"/>
				
					<linearGradient id="SVGID_00000039815500146613443560000007682804081174573728_" gradientUnits="userSpaceOnUse" x1="86.8419" y1="274.9973" x2="50.9923" y2="166.7723" gradientTransform="matrix(1 0 0 -1 0 138.6498)">
					<stop  offset="0" style="stop-color:#7948FF"/>
					<stop  offset="1" style="stop-color:#FFA2FF"/>
				</linearGradient>
				<polygon style="fill:url(#SVGID_00000039815500146613443560000007682804081174573728_);" points="93,-105 93,-93.8 65.3,-93.8 
					65.3,-132.5 65.3,-132.6 65.3,-132.7 65.4,-132.6 				"/>
			</g>
		</g>
	</g>
	<g class="st0">
		<g class="st2">
			
				<text transform="matrix(1 0 0 1 349.7278 -20.5863)" class="st4" style="fill:#F5F5F5; font-size:35.1818px; letter-spacing:10;">LOGONAME</text>
			<text transform="matrix(1 0 0 1 403.8224 11.3785)" class="st3 st4 st5 st6">SLOGAN HERE</text>
		</g>
		<g class="st2">
			<g>
				
					<linearGradient id="SVGID_00000096017641543995294380000011587548378744677305_" gradientUnits="userSpaceOnUse" x1="496.8904" y1="184.035" x2="445.0298" y2="373.0072" gradientTransform="matrix(1 0 0 -1 0 138.6498)">
					<stop  offset="0" style="stop-color:#A672FF"/>
					<stop  offset="1" style="stop-color:#FFA2FF"/>
				</linearGradient>
				<path style="fill:url(#SVGID_00000096017641543995294380000011587548378744677305_);" d="M504.7-220v34.1
					c-6.1-11.1-15.3-20.1-26.5-26.2c-9.3-5-20-7.9-31.4-7.9c-0.4,0-0.9,0-1.3,0c-34.3,0.7-62.2,27.5-64.6,61.4
					c-0.1,1.5-0.2,3.1-0.2,4.6c0,7.6,1.3,14.9,3.6,21.6c4.1,11.8,11.4,22.1,21,29.8c11.3,9.2,25.8,14.6,41.5,14.6
					c18.6,0,35.3-7.7,47.3-20c4.1-4.2,7.6-8.9,10.5-14.1v34.1h33V-220H504.7z M446.9-187c18.2,0,33,14.8,33,33c0,1.4-0.1,2.7-0.2,4
					c-2,16.3-15.9,29-32.8,29c-15.8,0-29.1-11.1-32.3-26c-0.5-2.3-0.8-4.6-0.8-7C413.8-172.2,428.6-187,446.9-187z"/>
				
					<linearGradient id="SVGID_00000134941078908250746950000017815311447430917508_" gradientUnits="userSpaceOnUse" x1="585.6212" y1="208.3852" x2="533.7594" y2="397.3615" gradientTransform="matrix(1 0 0 -1 0 138.6498)">
					<stop  offset="0" style="stop-color:#A672FF"/>
					<stop  offset="1" style="stop-color:#FFA2FF"/>
				</linearGradient>
				
					<rect x="546" y="-220" style="fill:url(#SVGID_00000134941078908250746950000017815311447430917508_);" width="33" height="132.1"/>
				
					<linearGradient id="SVGID_00000145758788833981400980000000395533803527905708_" gradientUnits="userSpaceOnUse" x1="572.6281" y1="349.0981" x2="548.6989" y2="446.9087" gradientTransform="matrix(1 0 0 -1 0 138.6498)">
					<stop  offset="0" style="stop-color:#A672FF"/>
					<stop  offset="1" style="stop-color:#FFA2FF"/>
				</linearGradient>
				<circle style="fill:url(#SVGID_00000145758788833981400980000000395533803527905708_);" cx="562.5" cy="-251.9" r="16.5"/>
				
					<linearGradient id="SVGID_00000098196656063649603210000008472848870038150077_" gradientUnits="userSpaceOnUse" x1="611.8779" y1="189.4165" x2="577.3303" y2="358.1174" gradientTransform="matrix(1 0 0 -1 0 138.6498)">
					<stop  offset="0" style="stop-color:#A672FF"/>
					<stop  offset="1" style="stop-color:#FFA2FF"/>
				</linearGradient>
				
					<rect x="585.5" y="-119.5" style="fill:url(#SVGID_00000098196656063649603210000008472848870038150077_);" width="30.9" height="30.9"/>
			</g>
			<g>
				
					<linearGradient id="SVGID_00000015351258765069590130000012197575666369815964_" gradientUnits="userSpaceOnUse" x1="472.025" y1="189.973" x2="429.3985" y2="498.3035" gradientTransform="matrix(1 0 0 -1 0 138.6498)">
					<stop  offset="0" style="stop-color:#A672FF"/>
					<stop  offset="1" style="stop-color:#FFA2FF"/>
				</linearGradient>
				<path style="fill:url(#SVGID_00000015351258765069590130000012197575666369815964_);" d="M537.7-128.5v40.6h-1.1
					c-3.5-1.8-7-3.7-10.6-5.5c-6.1-3.1-12.2-6.2-18.4-9.1c-1-0.4-1.9-0.9-2.9-1.3V-122c-2.8,5.1-6.4,9.9-10.5,14.1
					c-0.9-0.3-1.8-0.6-2.8-1c-6.5-2.2-13.1-4-19.8-5.3c-1.1-0.2-2.2-0.4-3.2-0.6c-0.1,0-0.5-0.1-0.9-0.1c-0.3,0-0.7-0.1-0.8-0.1
					c-0.8-0.1-1.6-0.2-2.5-0.2c-3.3-0.3-6.6-0.5-9.9-0.5c-3.6,0-7.1,0-10.7,0.3c-1.3,0.1-2.5,0.2-3.8,0.4h0.1
					c-0.5,0.1-2,0.3-2.8,0.4c-6.8,1.2-13.1,3.3-19.6,5.5c-0.5,0.2-0.9,0.4-1.3,0.6c-1.2,0.6-2.5,1.2-3.7,1.8
					c-2.5,1.3-4.9,2.7-7.2,4.2c-9.5-7.7-16.9-18-21-29.8c6.7-4.5,13.9-8.3,21.5-11.5c2.8-1.2,5.7-2.2,8.6-3.1
					c3.2,14.9,16.5,26,32.3,26c16.9,0,30.8-12.6,32.8-29c4.4,0.8,8.7,1.8,13,3C508.4-142.6,523.2-135.8,537.7-128.5z"/>
				
					<linearGradient id="SVGID_00000079463529163602182040000016742953729504804282_" gradientUnits="userSpaceOnUse" x1="567.1011" y1="203.1172" x2="524.4747" y2="511.448" gradientTransform="matrix(1 0 0 -1 0 138.6498)">
					<stop  offset="0" style="stop-color:#A672FF"/>
					<stop  offset="1" style="stop-color:#FFA2FF"/>
				</linearGradient>
				<path style="fill:url(#SVGID_00000079463529163602182040000016742953729504804282_);" d="M570.9-111.5c2.7,1.3,5.4,2.6,8.1,3.9
					v19.8h-33v-36.4C554.3-120,562.6-115.6,570.9-111.5z"/>
				<g>
					
						<linearGradient id="SVGID_00000176002008318970307160000001383244523752331957_" gradientUnits="userSpaceOnUse" x1="528.1612" y1="197.7337" x2="485.5348" y2="506.0637" gradientTransform="matrix(1 0 0 -1 0 138.6498)">
						<stop  offset="0" style="stop-color:#A672FF"/>
						<stop  offset="1" style="stop-color:#FFA2FF"/>
					</linearGradient>
					<path style="fill:url(#SVGID_00000176002008318970307160000001383244523752331957_);" d="M537.7-197.9v44.3
						c-12.8-7.4-24.6-16.2-35.1-26.8c-9.5-9.6-17.2-20.5-24.4-31.7c11.1,6,20.3,15.1,26.5,26.2V-220h12.1c0.7,0.9,1.3,1.8,2,2.7
						c0.7,0.8,2.7,3.2,3.2,3.8c1.8,2.1,3.7,4.2,5.7,6.2C530.8-204,534.2-200.9,537.7-197.9z"/>
					
						<linearGradient id="SVGID_00000093891372510345212480000009350576078778619277_" gradientUnits="userSpaceOnUse" x1="575.7892" y1="204.3182" x2="533.1628" y2="512.6487" gradientTransform="matrix(1 0 0 -1 0 138.6498)">
						<stop  offset="0" style="stop-color:#A672FF"/>
						<stop  offset="1" style="stop-color:#FFA2FF"/>
					</linearGradient>
					<path style="fill:url(#SVGID_00000093891372510345212480000009350576078778619277_);" d="M579-174.6v38.4
						c-6.3-1.7-12.5-3.8-18.5-6.3c-4.9-2-9.8-4.2-14.5-6.6v-42.5c0.9,0.6,1.8,1.2,2.7,1.8c4.7,3.1,9.5,5.9,14.5,8.5
						c2.1,1.1,4.2,2.1,6.3,3.1c0.2,0.1,0.7,0.3,1.2,0.6c1.1,0.5,2.3,0.9,3.4,1.4C575.7-175.7,577.4-175.1,579-174.6z"/>
				</g>
				
					<linearGradient id="SVGID_00000151510903049363783710000005485288721290511012_" gradientUnits="userSpaceOnUse" x1="433.0963" y1="184.5913" x2="390.4699" y2="492.9209" gradientTransform="matrix(1 0 0 -1 0 138.6498)">
					<stop  offset="0" style="stop-color:#A672FF"/>
					<stop  offset="1" style="stop-color:#FFA2FF"/>
				</linearGradient>
				<path style="fill:url(#SVGID_00000151510903049363783710000005485288721290511012_);" d="M445.6-220c-1.1,8.6-3.9,17-8,24.3
					c-11.8,20.9-33.6,32.7-56.6,37.1C383.3-192.5,411.2-219.4,445.6-220z"/>
			</g>
		</g>
	</g>
	<g class="st0">
		<g class="st2">
			<g>
				
					<linearGradient id="SVGID_00000123431518279830162120000000625290098018838203_" gradientUnits="userSpaceOnUse" x1="70.1305" y1="-154.2906" x2="40.5183" y2="-2.6392" gradientTransform="matrix(1 0 0 -1 0 138.6498)">
					<stop  offset="0" style="stop-color:#7948FF"/>
					<stop  offset="1" style="stop-color:#FFA2FF"/>
				</linearGradient>
				<path style="fill:url(#SVGID_00000123431518279830162120000000625290098018838203_);" d="M53.3,305.2
					c-54.4,0-98.6-44.2-98.6-98.6c0-23.6,8.5-46.5,23.9-64.3c15.2-17.7,36.2-29.4,59.1-33.1c3.5-0.6,6.7,1.8,7.3,5.3
					c0.5,3.5-1.8,6.7-5.3,7.3c-41.9,6.7-72.2,42.3-72.2,84.8c0,47.3,38.5,85.9,85.9,85.9c47.4,0,85.9-38.5,85.9-85.9
					c0-14.3-3.6-28.5-10.4-40.9c-1.7-3.1-0.5-7,2.6-8.7c3.1-1.7,7-0.5,8.6,2.6c7.8,14.3,11.9,30.6,11.9,47
					C151.9,261,107.7,305.2,53.3,305.2z"/>
			</g>
			<g>
				
					<linearGradient id="SVGID_00000132791163524572340740000002906268310501604256_" gradientUnits="userSpaceOnUse" x1="51.6355" y1="-157.9019" x2="22.0231" y2="-6.2505" gradientTransform="matrix(1 0 0 -1 0 138.6498)">
					<stop  offset="0" style="stop-color:#7948FF"/>
					<stop  offset="1" style="stop-color:#FFA2FF"/>
				</linearGradient>
				<path style="fill:url(#SVGID_00000132791163524572340740000002906268310501604256_);" d="M85.1,195.2c-1.6-6-7.9-8.1-13.4-7.1
					c-0.9,0.2-1.8,0.3-2.6,0.5c1.6-24.4,3.2-48.8,4.9-73.2c0.2-3.6-3-6.8-6.4-7.2c-3.9-0.5-6.7,1.8-8.1,5.3
					c-11.7,30.4-24.3,60.4-37.8,90c-10.1,3.8-20.1,8-29.9,12.4c-3.6,1.7-4.5,6.9-2.6,10.1c2.2,3.7,6.4,4.3,10.1,2.6
					c4.5-2,9-4,13.6-5.9c-1.9,3.9-3.7,7.9-5.6,11.8c-5.5,11.4-11.1,22.8-16.9,34.1c-1.8,3.5-0.9,8,2.6,10.1
					c3.3,1.9,8.3,0.9,10.1-2.6c10.2-20.1,20.1-40.4,29.5-60.9c1.5-0.5,3-1.1,4.6-1.6c5.3-1.8,10.7-3.5,16.1-5.2l-3.4,50.5
					c-0.3,4,3.6,7.4,7.4,7.4c4.2,0,7.1-3.4,7.4-7.4c1.2-18.2,2.4-36.5,3.6-54.8c0.7-0.2,1.4-0.4,2.1-0.6c1.3,2,3.6,3.5,6,3.3
					C81.9,206.2,86.8,201.4,85.1,195.2z M45,195.4c-1.5,0.5-2.9,0.9-4.4,1.4c5.3-11.9,10.5-23.9,15.5-35.9L54,192.6
					C51,193.5,48,194.5,45,195.4z"/>
				
					<linearGradient id="SVGID_00000122705649548054421290000004648554509323434112_" gradientUnits="userSpaceOnUse" x1="107.9184" y1="-146.9118" x2="78.306" y2="4.7397" gradientTransform="matrix(1 0 0 -1 0 138.6498)">
					<stop  offset="0" style="stop-color:#7948FF"/>
					<stop  offset="1" style="stop-color:#FFA2FF"/>
				</linearGradient>
				<path style="fill:url(#SVGID_00000122705649548054421290000004648554509323434112_);" d="M101.6,157.3c-3.5-1-8.4,1.2-9,5.1
					c-2.4,15.1-4.6,30.2-6.8,45.4c-4.5-0.3-9.6,3.4-8.2,9.2c2.8,12,3.3,24.1,1.8,36.3c-1,8.2,13.3,10.2,14.5,2
					c4.1-29.7,8.4-59.3,13-88.9C107.3,162.4,105.7,158.4,101.6,157.3z"/>
				
					<linearGradient id="SVGID_00000066478989230810650910000012998660347087636159_" gradientUnits="userSpaceOnUse" x1="131.5415" y1="-142.2992" x2="101.9291" y2="9.3523" gradientTransform="matrix(1 0 0 -1 0 138.6498)">
					<stop  offset="0" style="stop-color:#7948FF"/>
					<stop  offset="1" style="stop-color:#FFA2FF"/>
				</linearGradient>
				<path style="fill:url(#SVGID_00000066478989230810650910000012998660347087636159_);" d="M107.2,126.7c-3.7-0.8-8.1,1.1-9,5.1
					c-0.9,3.8-1.8,7.7-2.6,11.6c-0.9,3.7,1.1,8.1,5.1,9c3.7,0.8,8.1-1.1,9-5.1c0.9-3.8,1.8-7.7,2.6-11.6
					C113.2,132,111.2,127.7,107.2,126.7z"/>
			</g>
		</g>
		<g class="st2">
			
				<text transform="matrix(1 0 0 1 -100.2849 366.2238)" class="st4" style="fill:#F5F5F5; font-size:35.1818px; letter-spacing:10;">LOGONAME</text>
			<text transform="matrix(1 0 0 1 -46.1902 398.1886)" class="st3 st4 st5 st6">SLOGAN HERE</text>
		</g>
	</g>
	<g>
		<g>
			<g>
				
					<linearGradient id="SVGID_00000161612847021698449080000002261709393922624932_" gradientUnits="userSpaceOnUse" x1="181.5672" y1="-32.3068" x2="121.0227" y2="165.9767" gradientTransform="matrix(1 0 0 -1 0 138.6498)">
					<stop  offset="0" style="stop-color:#A672FF"/>
					<stop  offset="1" style="stop-color:#FFA2FF"/>
				</linearGradient>
				<path style="fill:url(#SVGID_00000161612847021698449080000002261709393922624932_);" d="M161.1,35.2h-35.2L108.3,0h26.3
					c5.5,0,10.5,3.1,12.9,8L161.1,35.2z"/>
				
					<linearGradient id="SVGID_00000016038333710256556720000013973299685233654204_" gradientUnits="userSpaceOnUse" x1="149.2316" y1="-53.4462" x2="54.1262" y2="93.3741" gradientTransform="matrix(1 0 0 -1 0 138.6498)">
					<stop  offset="0" style="stop-color:#7948FF"/>
					<stop  offset="1" style="stop-color:#FFA2FF"/>
				</linearGradient>
				<path style="fill:url(#SVGID_00000016038333710256556720000013973299685233654204_);" d="M198.1,140.8H38L51.8,113
					c2.3-4.6,7-7.5,12.1-7.5h48.4c2.2,0,3.7-2.3,2.7-4.3l-0.6-1.1l0,0L82,35.2L29.2,140.8H9.8c-7.3,0-12-7.7-8.8-14.2L56.5,15.7
					C61.3,6.1,71.2,0,81.9,0c5.4,0,10.6,1.5,15,4.2c4.4,2.7,8.1,6.7,10.5,11.5l43.8,87.7c0.7,1.3,2,2.2,3.5,2.2
					c2.3,0,3.9-1.9,3.9-3.9c0-0.6-0.1-1.2-0.4-1.8l-1-2l-0.1-0.1L130.3,44h29.1c3.7,0,7.1,2.1,8.8,5.4l38.6,77.2
					C210.1,133.1,205.4,140.8,198.1,140.8z"/>
			</g>
			
				<linearGradient id="SVGID_00000038391957671117851970000012917279571108328348_" gradientUnits="userSpaceOnUse" x1="277.7696" y1="-28.8437" x2="144.8236" y2="64.4959" gradientTransform="matrix(1 0 0 -1 0 138.6498)">
				<stop  offset="0" style="stop-color:#7948FF"/>
				<stop  offset="1" style="stop-color:#FFA2FF"/>
			</linearGradient>
			<path style="fill:url(#SVGID_00000038391957671117851970000012917279571108328348_);" d="M198.1,140.8H179l-21.6-42.9l-0.1-0.1
				L130.3,44h29.1c3.7,0,7.1,2.1,8.8,5.4l38.6,77.2C210.1,133.1,205.4,140.8,198.1,140.8z"/>
			
				<linearGradient id="SVGID_00000078744280813852707150000011300892586327435688_" gradientUnits="userSpaceOnUse" x1="115.3846" y1="34.434" x2="71.9944" y2="-10.7221" gradientTransform="matrix(1 0 0 -1 0 138.6498)">
				<stop  offset="0" style="stop-color:#7948FF"/>
				<stop  offset="1" style="stop-color:#FFA2FF"/>
			</linearGradient>
			<path style="fill:url(#SVGID_00000078744280813852707150000011300892586327435688_);" d="M136.2,140.8H38L51.8,113
				c2.3-4.6,7-7.5,12.1-7.5h48.4c2.2,0,3.7-2.3,2.7-4.3l-0.6-1.1L136.2,140.8z"/>
		</g>
		<g class="st0">
			
				<text transform="matrix(1 0 0 1 153.0639 221.8831)" class="st4" style="display:inline;fill:#F5F5F5; font-size:35.1818px; letter-spacing:10;">LOGONAME</text>
			<text transform="matrix(1 0 0 1 207.1586 253.8479)" class="st4 st5 st6" style="display:inline;fill:#B6B2BF;">SLOGAN HERE</text>
		</g>
	</g>
	<text transform="matrix(1 0 0 1 210.961 102.3653)" class="st31 st32 st33">Aurora</text>
</g>
</svg>
