<?xml version="1.0" encoding="utf-8"?>
<!-- Generator: Adobe Illustrator 26.0.0, SVG Export Plug-In . SVG Version: 6.00 Build 0)  -->
<svg version="1.1" id="Layer_1" xmlns="http://www.w3.org/2000/svg" xmlns:xlink="http://www.w3.org/1999/xlink" x="0px" y="0px"
	 viewBox="0 0 207.9 140.8" style="enable-background:new 0 0 207.9 140.8;" xml:space="preserve">
<style type="text/css">
	.st0{display:none;}
	.st1{display:inline;fill:#180043;}
	.st2{display:inline;}
	.st3{fill:url(#SVGID_1_);}
	.st4{fill:url(#SVGID_00000026141748192330566810000001549960787282514060_);}
	.st5{fill:url(#SVGID_00000016778891816945402220000014748708026966144921_);}
	.st6{fill:url(#SVGID_00000116209456349625839270000007051140691661366193_);}
	.st7{fill:url(#SVGID_00000060029096249799332810000002413631508509191080_);}
	.st8{fill:url(#SVGID_00000134965428045879051350000003044123810781676932_);}
	.st9{fill:url(#SVGID_00000133487090266918034600000001934800384576500414_);}
	.st10{fill:url(#SVGID_00000132803346275038769380000000814392877168919717_);}
	.st11{fill:url(#SVGID_00000075154264070525485260000017306654126151240579_);}
	.st12{fill:url(#SVGID_00000163038070689250197710000014471479421157898905_);}
	.st13{fill:url(#SVGID_00000005258168952112733300000011047173205266992820_);}
	.st14{fill:url(#SVGID_00000004523887220653409370000017164065286071729558_);}
	.st15{fill:url(#SVGID_00000180327773874783892510000002386020998646246295_);}
	.st16{fill:url(#SVGID_00000044889976608332011970000004556632101485053080_);}
	.st17{fill:url(#SVGID_00000124866276831982478200000005761948221194294448_);}
	.st18{fill:url(#SVGID_00000021820280283373056570000007974597455210777249_);}
	.st19{fill:url(#SVGID_00000024720634317482490750000000398376299044448949_);}
	.st20{fill:url(#SVGID_00000018917885192881166660000002473055250222196916_);}
	.st21{fill:url(#SVGID_00000062892522714684222340000003095150763027161747_);}
	.st22{fill:url(#SVGID_00000032627756139921110990000003784742952028115606_);}
	.st23{fill:url(#SVGID_00000116204558480578381490000015073416024480645767_);}
	.st24{fill:url(#SVGID_00000047779750905654582030000008778906274762364566_);}
	.st25{fill:url(#SVGID_00000111905661823155977340000009930809375246208930_);}
	.st26{fill:url(#SVGID_00000056413333123908908070000011412705487914766241_);}
</style>
<g id="BACKGROUND" class="st0">
	<rect x="-396.1" y="-429.6" class="st1" width="1000" height="1000"/>
</g>
<g id="OBJECTS">
	<g class="st0">
		<g class="st2">
			
				<text transform="matrix(1 0 0 1 -270.2149 -20.5863)" style="fill:#F5F5F5; font-family:'ArialMT'; font-size:35.1818px; letter-spacing:10;">LOGONAME</text>
			
				<text transform="matrix(1 0 0 1 -216.1202 11.3785)" style="fill:#B6B2BF; font-family:'ArialMT'; font-size:18.0783px; letter-spacing:5;">SLOGAN HERE</text>
		</g>
		<g class="st2">
			<g>
				
					<linearGradient id="SVGID_1_" gradientUnits="userSpaceOnUse" x1="-6.8661" y1="224.6525" x2="-69.7718" y2="402.2092" gradientTransform="matrix(1 0 0 -1 0 138.6498)">
					<stop  offset="0" style="stop-color:#7948FF"/>
					<stop  offset="1" style="stop-color:#FFA2FF"/>
				</linearGradient>
				<rect x="-65.8" y="-227" class="st3" width="27.8" height="27.8"/>
				
					<linearGradient id="SVGID_00000027595579284500424930000012180172861505057454_" gradientUnits="userSpaceOnUse" x1="-90.5751" y1="192.8242" x2="-149.7604" y2="359.8961" gradientTransform="matrix(1 0 0 -1 0 138.6498)">
					<stop  offset="0" style="stop-color:#7948FF"/>
					<stop  offset="1" style="stop-color:#FFA2FF"/>
				</linearGradient>
				<path style="fill:url(#SVGID_00000027595579284500424930000012180172861505057454_);" d="M-38-188.2v85.2c0,5.1-4.1,9.2-9.2,9.2
					h-14.6c-2.5,0-4.8-1-6.5-2.7l-8.5-8.5v11.2h-27.8v-38.9h0.1l0-0.1l-0.1-0.1v0.1H-159l-17.8,38.9h-27.8l17.8-38.9l12.7-27.8
					l23-50.2l5-11c1.5-3.3,4.8-5.4,8.4-5.4h51.5c5.1,0,9.2,4.1,9.2,9.3v57.4h-0.4l-7-7l-4.1-4.1h-6.3v0h-9.4l-0.5-0.5v-27.3h-23.8
					l-1.9,4.1l-15.9,34.8h49.4c2.5,0,4.8,1,6.5,2.7l24.5,24.5v-55L-38-188.2L-38-188.2z"/>
				
					<linearGradient id="SVGID_00000122695407578600103760000005635269447603301792_" gradientUnits="userSpaceOnUse" x1="-23.1502" y1="337.8056" x2="-85.7178" y2="223.8311" gradientTransform="matrix(1 0 0 -1 0 138.6498)">
					<stop  offset="0" style="stop-color:#7948FF"/>
					<stop  offset="1" style="stop-color:#FFA2FF"/>
				</linearGradient>
				<polygon style="fill:url(#SVGID_00000122695407578600103760000005635269447603301792_);" points="-38,-188.2 -38,-105.4 
					-65.8,-133.1 -65.8,-188.2 				"/>
			</g>
			<g>
				
					<linearGradient id="SVGID_00000090978600048814604800000004196529985824874416_" gradientUnits="userSpaceOnUse" x1="-182.9538" y1="274.3559" x2="-179.8244" y2="211.3205" gradientTransform="matrix(1 0 0 -1 0 138.6498)">
					<stop  offset="0" style="stop-color:#7948FF"/>
					<stop  offset="1" style="stop-color:#FFA2FF"/>
				</linearGradient>
				<path style="fill:url(#SVGID_00000090978600048814604800000004196529985824874416_);" d="M-159-132.6l-17.8,38.9h-27.8
					l14.9-32.4c1.8-3.9,5.7-6.5,10.1-6.5H-159z"/>
				
					<linearGradient id="SVGID_00000147188954405320925870000008673660273427482558_" gradientUnits="userSpaceOnUse" x1="-164.3077" y1="287.8911" x2="-138.3552" y2="348.7175" gradientTransform="matrix(1 0 0 -1 0 138.6498)">
					<stop  offset="0" style="stop-color:#7948FF"/>
					<stop  offset="1" style="stop-color:#FFA2FF"/>
				</linearGradient>
				<path style="fill:url(#SVGID_00000147188954405320925870000008673660273427482558_);" d="M-130.4-195.2l-15.9,34.8h-20.8
					c-3.3,0-5.5-3.4-4.1-6.4l20.1-43.9h8.6C-142.5-210.6-136.1-202.5-130.4-195.2z"/>
				
					<linearGradient id="SVGID_00000016789219919815099130000001768893395474795675_" gradientUnits="userSpaceOnUse" x1="-91.1359" y1="343.0793" x2="-90.0086" y2="283.4427" gradientTransform="matrix(1 0 0 -1 0 138.6498)">
					<stop  offset="0" style="stop-color:#7948FF"/>
					<stop  offset="1" style="stop-color:#FFA2FF"/>
				</linearGradient>
				<polygon style="fill:url(#SVGID_00000016789219919815099130000001768893395474795675_);" points="-76.9,-199.3 -76.9,-160.4 
					-77.3,-160.4 -84.4,-167.4 -88.5,-171.5 -94.8,-171.5 -94.8,-171.6 -104.2,-171.6 -104.7,-172 -104.7,-199.3 				"/>
				
					<linearGradient id="SVGID_00000181771364494346148360000005031718336929328277_" gradientUnits="userSpaceOnUse" x1="-83.0881" y1="274.9973" x2="-118.9377" y2="166.7723" gradientTransform="matrix(1 0 0 -1 0 138.6498)">
					<stop  offset="0" style="stop-color:#7948FF"/>
					<stop  offset="1" style="stop-color:#FFA2FF"/>
				</linearGradient>
				<polygon style="fill:url(#SVGID_00000181771364494346148360000005031718336929328277_);" points="-76.9,-105 -76.9,-93.8 
					-104.7,-93.8 -104.7,-132.5 -104.6,-132.6 -104.6,-132.7 -104.6,-132.6 				"/>
			</g>
		</g>
	</g>
	<g class="st0">
		<g class="st2">
			
				<text transform="matrix(1 0 0 1 179.7978 -20.5863)" style="fill:#F5F5F5; font-family:'ArialMT'; font-size:35.1818px; letter-spacing:10;">LOGONAME</text>
			
				<text transform="matrix(1 0 0 1 233.8925 11.3785)" style="fill:#B6B2BF; font-family:'ArialMT'; font-size:18.0783px; letter-spacing:5;">SLOGAN HERE</text>
		</g>
		<g class="st2">
			<g>
				
					<linearGradient id="SVGID_00000122718005184133266640000003339307773986920598_" gradientUnits="userSpaceOnUse" x1="326.9604" y1="184.035" x2="275.0998" y2="373.0072" gradientTransform="matrix(1 0 0 -1 0 138.6498)">
					<stop  offset="0" style="stop-color:#A672FF"/>
					<stop  offset="1" style="stop-color:#FFA2FF"/>
				</linearGradient>
				<path style="fill:url(#SVGID_00000122718005184133266640000003339307773986920598_);" d="M334.8-220v34.1
					c-6.1-11.1-15.3-20.1-26.5-26.2c-9.3-5-20-7.9-31.4-7.9c-0.4,0-0.9,0-1.3,0c-34.3,0.7-62.2,27.5-64.6,61.4
					c-0.1,1.5-0.2,3.1-0.2,4.6c0,7.6,1.3,14.9,3.6,21.6c4.1,11.8,11.4,22.1,21,29.8c11.3,9.2,25.8,14.6,41.5,14.6
					c18.6,0,35.3-7.7,47.3-20c4.1-4.2,7.6-8.9,10.5-14.1v34.1h33V-220H334.8z M276.9-187c18.2,0,33,14.8,33,33c0,1.4-0.1,2.7-0.2,4
					c-2,16.3-15.9,29-32.8,29c-15.8,0-29.1-11.1-32.3-26c-0.5-2.3-0.8-4.6-0.8-7C243.9-172.2,258.7-187,276.9-187z"/>
				
					<linearGradient id="SVGID_00000174567870438855300210000012641999791255378051_" gradientUnits="userSpaceOnUse" x1="415.6912" y1="208.3852" x2="363.8294" y2="397.3615" gradientTransform="matrix(1 0 0 -1 0 138.6498)">
					<stop  offset="0" style="stop-color:#A672FF"/>
					<stop  offset="1" style="stop-color:#FFA2FF"/>
				</linearGradient>
				
					<rect x="376.1" y="-220" style="fill:url(#SVGID_00000174567870438855300210000012641999791255378051_);" width="33" height="132.1"/>
				
					<linearGradient id="SVGID_00000054225303487413871260000015737167865333431741_" gradientUnits="userSpaceOnUse" x1="402.698" y1="349.0981" x2="378.7688" y2="446.9087" gradientTransform="matrix(1 0 0 -1 0 138.6498)">
					<stop  offset="0" style="stop-color:#A672FF"/>
					<stop  offset="1" style="stop-color:#FFA2FF"/>
				</linearGradient>
				<circle style="fill:url(#SVGID_00000054225303487413871260000015737167865333431741_);" cx="392.6" cy="-251.9" r="16.5"/>
				
					<linearGradient id="SVGID_00000152239706527386607940000014907077711584974267_" gradientUnits="userSpaceOnUse" x1="441.9479" y1="189.4165" x2="407.4002" y2="358.1174" gradientTransform="matrix(1 0 0 -1 0 138.6498)">
					<stop  offset="0" style="stop-color:#A672FF"/>
					<stop  offset="1" style="stop-color:#FFA2FF"/>
				</linearGradient>
				
					<rect x="415.6" y="-119.5" style="fill:url(#SVGID_00000152239706527386607940000014907077711584974267_);" width="30.9" height="30.9"/>
			</g>
			<g>
				
					<linearGradient id="SVGID_00000067200154138451818250000001356594608021554316_" gradientUnits="userSpaceOnUse" x1="302.095" y1="189.973" x2="259.4685" y2="498.3035" gradientTransform="matrix(1 0 0 -1 0 138.6498)">
					<stop  offset="0" style="stop-color:#A672FF"/>
					<stop  offset="1" style="stop-color:#FFA2FF"/>
				</linearGradient>
				<path style="fill:url(#SVGID_00000067200154138451818250000001356594608021554316_);" d="M367.8-128.5v40.6h-1.1
					c-3.5-1.8-7-3.7-10.6-5.5c-6.1-3.1-12.2-6.2-18.4-9.1c-1-0.4-1.9-0.9-2.9-1.3V-122c-2.8,5.1-6.4,9.9-10.5,14.1
					c-0.9-0.3-1.8-0.6-2.8-1c-6.5-2.2-13.1-4-19.8-5.3c-1.1-0.2-2.2-0.4-3.2-0.6c-0.1,0-0.5-0.1-0.9-0.1c-0.3,0-0.7-0.1-0.8-0.1
					c-0.8-0.1-1.6-0.2-2.5-0.2c-3.3-0.3-6.6-0.5-9.9-0.5c-3.6,0-7.1,0-10.7,0.3c-1.3,0.1-2.5,0.2-3.8,0.4h0.1
					c-0.5,0.1-2,0.3-2.8,0.4c-6.8,1.2-13.1,3.3-19.6,5.5c-0.5,0.2-0.9,0.4-1.3,0.6c-1.2,0.6-2.5,1.2-3.7,1.8
					c-2.5,1.3-4.9,2.7-7.2,4.2c-9.5-7.7-16.9-18-21-29.8c6.7-4.5,13.9-8.3,21.5-11.5c2.8-1.2,5.7-2.2,8.6-3.1
					c3.2,14.9,16.4,26,32.3,26c16.9,0,30.8-12.6,32.8-29c4.4,0.8,8.7,1.8,13,3C338.4-142.6,353.2-135.8,367.8-128.5z"/>
				
					<linearGradient id="SVGID_00000138556279784987591110000000320772835093488786_" gradientUnits="userSpaceOnUse" x1="397.1711" y1="203.1172" x2="354.5447" y2="511.448" gradientTransform="matrix(1 0 0 -1 0 138.6498)">
					<stop  offset="0" style="stop-color:#A672FF"/>
					<stop  offset="1" style="stop-color:#FFA2FF"/>
				</linearGradient>
				<path style="fill:url(#SVGID_00000138556279784987591110000000320772835093488786_);" d="M401-111.5c2.7,1.3,5.4,2.6,8.1,3.9
					v19.8h-33v-36.4C384.4-120,392.6-115.6,401-111.5z"/>
				<g>
					
						<linearGradient id="SVGID_00000133502575989391709640000014044181588856158108_" gradientUnits="userSpaceOnUse" x1="358.2312" y1="197.7337" x2="315.6048" y2="506.0637" gradientTransform="matrix(1 0 0 -1 0 138.6498)">
						<stop  offset="0" style="stop-color:#A672FF"/>
						<stop  offset="1" style="stop-color:#FFA2FF"/>
					</linearGradient>
					<path style="fill:url(#SVGID_00000133502575989391709640000014044181588856158108_);" d="M367.8-197.9v44.3
						c-12.8-7.4-24.6-16.2-35.1-26.8c-9.5-9.6-17.2-20.5-24.4-31.7c11.1,6,20.3,15.1,26.5,26.2V-220h12.1c0.7,0.9,1.3,1.8,2,2.7
						c0.7,0.8,2.7,3.2,3.2,3.8c1.8,2.1,3.7,4.2,5.7,6.2C360.9-204,364.3-200.9,367.8-197.9z"/>
					
						<linearGradient id="SVGID_00000095339061924293017780000003607484779739561916_" gradientUnits="userSpaceOnUse" x1="405.8593" y1="204.3182" x2="363.2328" y2="512.6487" gradientTransform="matrix(1 0 0 -1 0 138.6498)">
						<stop  offset="0" style="stop-color:#A672FF"/>
						<stop  offset="1" style="stop-color:#FFA2FF"/>
					</linearGradient>
					<path style="fill:url(#SVGID_00000095339061924293017780000003607484779739561916_);" d="M409.1-174.6v38.4
						c-6.3-1.7-12.5-3.8-18.5-6.3c-4.9-2-9.8-4.2-14.5-6.6v-42.5c0.9,0.6,1.8,1.2,2.7,1.8c4.7,3.1,9.5,5.9,14.5,8.5
						c2.1,1.1,4.2,2.1,6.3,3.1c0.2,0.1,0.7,0.3,1.2,0.6c1.1,0.5,2.3,0.9,3.4,1.4C405.8-175.7,407.4-175.1,409.1-174.6z"/>
				</g>
				
					<linearGradient id="SVGID_00000034054033193184839980000006189044059649429644_" gradientUnits="userSpaceOnUse" x1="263.1663" y1="184.5913" x2="220.5399" y2="492.9209" gradientTransform="matrix(1 0 0 -1 0 138.6498)">
					<stop  offset="0" style="stop-color:#A672FF"/>
					<stop  offset="1" style="stop-color:#FFA2FF"/>
				</linearGradient>
				<path style="fill:url(#SVGID_00000034054033193184839980000006189044059649429644_);" d="M275.6-220c-1.1,8.6-3.9,17-8,24.3
					c-11.8,20.9-33.6,32.7-56.6,37.1C213.4-192.5,241.3-219.4,275.6-220z"/>
			</g>
		</g>
	</g>
	<g class="st0">
		<g class="st2">
			<g>
				
					<linearGradient id="SVGID_00000083793413456755635860000010362592409410225032_" gradientUnits="userSpaceOnUse" x1="-99.7995" y1="-154.2906" x2="-129.4117" y2="-2.6392" gradientTransform="matrix(1 0 0 -1 0 138.6498)">
					<stop  offset="0" style="stop-color:#7948FF"/>
					<stop  offset="1" style="stop-color:#FFA2FF"/>
				</linearGradient>
				<path style="fill:url(#SVGID_00000083793413456755635860000010362592409410225032_);" d="M-116.7,305.2
					c-54.4,0-98.6-44.2-98.6-98.6c0-23.6,8.5-46.5,23.9-64.3c15.2-17.7,36.2-29.4,59.1-33.1c3.5-0.6,6.7,1.8,7.3,5.3
					c0.5,3.5-1.8,6.7-5.3,7.3c-41.9,6.7-72.2,42.3-72.2,84.8c0,47.3,38.5,85.9,85.9,85.9c47.4,0,85.9-38.5,85.9-85.9
					c0-14.3-3.6-28.5-10.4-40.9c-1.7-3.1-0.5-7,2.6-8.7c3.1-1.7,7-0.5,8.6,2.6c7.8,14.3,11.9,30.6,11.9,47
					C-18,261-62.3,305.2-116.7,305.2z"/>
			</g>
			<g>
				
					<linearGradient id="SVGID_00000054262276846766029200000012853058853155464635_" gradientUnits="userSpaceOnUse" x1="-118.2945" y1="-157.9019" x2="-147.9069" y2="-6.2505" gradientTransform="matrix(1 0 0 -1 0 138.6498)">
					<stop  offset="0" style="stop-color:#7948FF"/>
					<stop  offset="1" style="stop-color:#FFA2FF"/>
				</linearGradient>
				<path style="fill:url(#SVGID_00000054262276846766029200000012853058853155464635_);" d="M-84.9,195.2c-1.6-6-7.9-8.1-13.4-7.1
					c-0.9,0.2-1.8,0.3-2.6,0.5c1.6-24.4,3.2-48.8,4.9-73.2c0.2-3.6-3-6.8-6.4-7.2c-3.9-0.5-6.7,1.8-8.1,5.3
					c-11.7,30.4-24.3,60.4-37.8,90c-10.1,3.8-20.1,8-29.9,12.4c-3.6,1.7-4.5,6.9-2.6,10.1c2.2,3.7,6.4,4.3,10.1,2.6
					c4.5-2,9-4,13.6-5.9c-1.9,3.9-3.7,7.9-5.6,11.8c-5.5,11.4-11.1,22.8-16.9,34.1c-1.8,3.5-0.9,8,2.6,10.1
					c3.3,1.9,8.3,0.9,10.1-2.6c10.2-20.1,20.1-40.4,29.5-60.9c1.5-0.5,3-1.1,4.6-1.6c5.3-1.8,10.7-3.5,16.1-5.2l-3.4,50.5
					c-0.3,4,3.6,7.4,7.4,7.4c4.2,0,7.1-3.4,7.4-7.4c1.2-18.2,2.4-36.5,3.6-54.8c0.7-0.2,1.4-0.4,2.1-0.6c1.3,2,3.6,3.5,6,3.3
					C-88,206.2-83.1,201.4-84.9,195.2z M-125,195.4c-1.5,0.5-2.9,0.9-4.3,1.4c5.3-11.9,10.5-23.9,15.5-35.9l-2.1,31.7
					C-119,193.5-122,194.5-125,195.4z"/>
				
					<linearGradient id="SVGID_00000162328277412296577200000004605620095738907561_" gradientUnits="userSpaceOnUse" x1="-62.0116" y1="-146.9118" x2="-91.624" y2="4.7397" gradientTransform="matrix(1 0 0 -1 0 138.6498)">
					<stop  offset="0" style="stop-color:#7948FF"/>
					<stop  offset="1" style="stop-color:#FFA2FF"/>
				</linearGradient>
				<path style="fill:url(#SVGID_00000162328277412296577200000004605620095738907561_);" d="M-68.4,157.3c-3.5-1-8.4,1.2-9,5.1
					c-2.4,15.1-4.6,30.2-6.8,45.4c-4.5-0.3-9.6,3.4-8.2,9.2c2.8,12,3.3,24.1,1.8,36.3c-1,8.2,13.3,10.2,14.5,2
					c4.1-29.7,8.4-59.3,13-88.9C-62.6,162.4-64.2,158.4-68.4,157.3z"/>
				
					<linearGradient id="SVGID_00000149376834718780859440000000688210675610333346_" gradientUnits="userSpaceOnUse" x1="-38.3885" y1="-142.2992" x2="-68.0008" y2="9.3523" gradientTransform="matrix(1 0 0 -1 0 138.6498)">
					<stop  offset="0" style="stop-color:#7948FF"/>
					<stop  offset="1" style="stop-color:#FFA2FF"/>
				</linearGradient>
				<path style="fill:url(#SVGID_00000149376834718780859440000000688210675610333346_);" d="M-62.7,126.7c-3.7-0.8-8.1,1.1-9,5.1
					c-0.9,3.8-1.8,7.7-2.6,11.6c-0.9,3.7,1.1,8.1,5.1,9c3.7,0.8,8.1-1.1,9-5.1c0.9-3.8,1.8-7.7,2.6-11.6
					C-56.7,132-58.7,127.7-62.7,126.7z"/>
			</g>
		</g>
		<g class="st2">
			
				<text transform="matrix(1 0 0 1 -270.2149 366.2238)" style="fill:#F5F5F5; font-family:'ArialMT'; font-size:35.1818px; letter-spacing:10;">LOGONAME</text>
			
				<text transform="matrix(1 0 0 1 -216.1202 398.1886)" style="fill:#B6B2BF; font-family:'ArialMT'; font-size:18.0783px; letter-spacing:5;">SLOGAN HERE</text>
		</g>
	</g>
	<g>
		<g>
			<g>
				
					<linearGradient id="SVGID_00000088114948300142506280000013924731153621758603_" gradientUnits="userSpaceOnUse" x1="181.567" y1="-32.306" x2="121.0224" y2="165.9775" gradientTransform="matrix(1 0 0 -1 0 138.6498)">
					<stop  offset="0" style="stop-color:#A672FF"/>
					<stop  offset="1" style="stop-color:#FFA2FF"/>
				</linearGradient>
				<path style="fill:url(#SVGID_00000088114948300142506280000013924731153621758603_);" d="M161.1,35.2h-35.2L108.3,0h26.3
					c5.5,0,10.5,3.1,12.9,8L161.1,35.2z"/>
				
					<linearGradient id="SVGID_00000161625755519093272650000013952339479427528066_" gradientUnits="userSpaceOnUse" x1="149.2307" y1="-53.4448" x2="54.1254" y2="93.3756" gradientTransform="matrix(1 0 0 -1 0 138.6498)">
					<stop  offset="0" style="stop-color:#7948FF"/>
					<stop  offset="1" style="stop-color:#FFA2FF"/>
				</linearGradient>
				<path style="fill:url(#SVGID_00000161625755519093272650000013952339479427528066_);" d="M198.1,140.8H38L51.8,113
					c2.3-4.6,7-7.5,12.1-7.5h48.4c2.2,0,3.7-2.3,2.7-4.3l-0.6-1.1l0,0L82,35.2L29.2,140.8H9.8c-7.3,0-12-7.7-8.8-14.2L56.5,15.7
					C61.3,6.1,71.2,0,81.9,0c5.4,0,10.6,1.5,15,4.2c4.4,2.7,8.1,6.7,10.5,11.5l43.8,87.7c0.7,1.3,2,2.2,3.5,2.2
					c2.3,0,3.9-1.9,3.9-3.9c0-0.6-0.1-1.2-0.4-1.8l-1-2l-0.1-0.1L130.3,44h29.2c3.7,0,7.1,2.1,8.8,5.4l38.6,77.2
					C210.1,133.1,205.4,140.8,198.1,140.8z"/>
			</g>
			
				<linearGradient id="SVGID_00000018922753454409134530000007204660680694986638_" gradientUnits="userSpaceOnUse" x1="277.7676" y1="-28.8423" x2="144.8215" y2="64.4974" gradientTransform="matrix(1 0 0 -1 0 138.6498)">
				<stop  offset="0" style="stop-color:#7948FF"/>
				<stop  offset="1" style="stop-color:#FFA2FF"/>
			</linearGradient>
			<path style="fill:url(#SVGID_00000018922753454409134530000007204660680694986638_);" d="M198.1,140.8H179l-21.7-42.9l-0.1-0.1
				L130.3,44h29.2c3.7,0,7.1,2.1,8.8,5.4l38.6,77.2C210.1,133.1,205.4,140.8,198.1,140.8z"/>
			
				<linearGradient id="SVGID_00000160169986912960469090000002271053508761756314_" gradientUnits="userSpaceOnUse" x1="115.3831" y1="34.4325" x2="71.9929" y2="-10.7237" gradientTransform="matrix(1 0 0 -1 0 138.6498)">
				<stop  offset="0" style="stop-color:#7948FF"/>
				<stop  offset="1" style="stop-color:#FFA2FF"/>
			</linearGradient>
			<path style="fill:url(#SVGID_00000160169986912960469090000002271053508761756314_);" d="M136.2,140.8H38L51.8,113
				c2.3-4.6,7-7.5,12.1-7.5h48.4c2.2,0,3.7-2.3,2.7-4.3l-0.6-1.1L136.2,140.8z"/>
		</g>
		<g class="st0">
			
				<text transform="matrix(1 0 0 1 -16.8661 221.8831)" style="display:inline;fill:#F5F5F5; font-family:'ArialMT'; font-size:35.1818px; letter-spacing:10;">LOGONAME</text>
			
				<text transform="matrix(1 0 0 1 37.2286 253.8479)" style="display:inline;fill:#B6B2BF; font-family:'ArialMT'; font-size:18.0783px; letter-spacing:5;">SLOGAN HERE</text>
		</g>
	</g>
</g>
</svg>
