<?xml version="1.0" encoding="utf-8"?>
<!-- Generator: Adobe Illustrator 25.0.0, SVG Export Plug-In . SVG Version: 6.00 Build 0)  -->
<svg version="1.1" id="Layer_1" xmlns="http://www.w3.org/2000/svg" xmlns:xlink="http://www.w3.org/1999/xlink" x="0px" y="0px"
	 viewBox="0 0 700 700" style="enable-background:new 0 0 700 700;" xml:space="preserve">
<style type="text/css">
	.st0{display:none;}
	.st1{display:inline;}
</style>
<g transform="translate(0.000000,700.000000) scale(0.100000,-0.100000)" class="st0">
	<path class="st1" d="M2952,6067.1c-316-317-576-577-578-580s6-14,19-25c35-31,14-24-28,9c-46,36-110,71-182,99
		c-387,150-830-18-1023-388c-20-40-79-200-72-200c2,0-1-15-6-32c-10-35-13-213-4-263c27-148,72-257,149-360c18-24,22-33,10-23
		c-11,10-23,18-25,18c-3,0-265-260-582-577l-578-577l580-580c540-540,580-578,596-563c30,30,25,18-11-30c-115-150-168-380-138-588
		c51-338,316-616,652-681c203-39,427,3,596,113c39,25,64,38,56,29c-12-16,43-74,566-597l579-579l579,579c528,528,578,581,565,597
		s-12,16,8,6c12-7,25-17,28-22c9-15,151-84,210-103c372-119,776,44,968,390c142,254,129,588-31,831c-53,82-57,90-32,63l23-23
		l578,578c318,318,577,579,576,581s-260,262-576,578c-569,570-574,575-598,560c-20-13-18-9,11,33c66,92,125,236,141,346
		c7,51,7,203,0,241c-28,142-61,224-131,332c-221,335-650,459-1018,293c-37-16-87-43-112-61c-33-23-44-27-42-15c2,11-197,217-549,569
		c-303,304-562,562-575,574l-24,23L2952,6067.1z M3028,4827.1c272-272,497-495,501-495c3,0,226,221,495,490c270,270,492,490,494,490
		s-12-24-32-52c-44-67-76-129-97-194c-65-200-49-439,41-619c117-231,339-400,585-445c217-40,457,13,628,138c33,24,34,24,15,3
		c-11-13-233-236-492-496c-260-260-473-475-473-479c0-3,221-226,490-496c270-270,490-492,490-495s-22,11-48,30
		c-119,85-279,136-437,138c-116,1-169-5-262-34c-258-80-462-283-541-541c-42-135-47-258-18-423c16-88,91-246,148-311
		c16-19,28-34,26-34c-3,0-229,225-504,500c-274,275-503,500-508,500c-4,0-229-221-499-490c-269-270-492-490-495-490c-2,0,7,15,21,33
		c26,34,85,149,105,202c50,136,60,330,23,469c-41,153-123,293-235,400c-273,259-721,294-1018,81c-26-19-50-35-52-35
		c-3,0,218,222,490,494s494,498,494,502s-218,225-485,492s-491,492-498,501c-6,8,6,1,28-16c122-96,299-155,468-155
		c234-1,435,80,592,239c218,221,295,542,198,833c-27,82-79,181-119,229c-14,17-23,31-20,31S2756,5099.1,3028,4827.1z"/>
	<path class="st1" d="M3481,3987.1c-2-1-31-5-65-9c-120-13-261-69-368-148c-213-157-335-394-337-652c-1-104,5-147,31-237
		c124-428,575-682,1001-563c269,75,480,278,563,540c144,456-121,930-583,1045C3657,3979.1,3491,3996.1,3481,3987.1z"/>
</g>
<image style="overflow:visible;" width="512" height="512" xlink:href="android-chrome-512x512.png"  transform="matrix(1 0 0 1 94 86.8898)">
</image>
</svg>
